<svg xmlns="http://www.w3.org/2000/svg" viewBox="0 0 60 60"><defs><style>.cls-1{fill:#ff1e9d;}.cls-2{fill:#fff;}</style></defs><g id="Layer_2" data-name="Layer 2"><g id="Layer_1-2" data-name="Layer 1"><path class="cls-1" d="M55,46.65a30,30,0,1,0-7.18,7.51L60,60Z"/><path class="cls-2" d="M12.56,21.65h4.6v5.74A12.85,12.85,0,0,1,13,28a5,5,0,0,1-3.8-1.43A5.72,5.72,0,0,1,7.9,22.53a5.32,5.32,0,0,1,1.47-4,5.63,5.63,0,0,1,4.12-1.44,9.46,9.46,0,0,1,1.89.19,8.49,8.49,0,0,1,1.56.48L16,20a5.63,5.63,0,0,0-2.53-.57,2.38,2.38,0,0,0-1.94.82,3.51,3.51,0,0,0-.69,2.34,3.61,3.61,0,0,0,.62,2.27,2.16,2.16,0,0,0,1.79.78,5.42,5.42,0,0,0,1.18-.12V23.87h-1.9Z"/><path class="cls-2" d="M23.14,28a4.42,4.42,0,0,1-3.2-1.1,4.12,4.12,0,0,1-1.14-3.12,4.49,4.49,0,0,1,1.05-3.2,4,4,0,0,1,3-1.12,4,4,0,0,1,2.87,1,3.69,3.69,0,0,1,1,2.8v1.27H21.67a1.4,1.4,0,0,0,.51,1.08,2,2,0,0,0,1.3.39,6,6,0,0,0,1.38-.14,6.38,6.38,0,0,0,1.36-.48v2a5.15,5.15,0,0,1-1.38.48A10.32,10.32,0,0,1,23.14,28ZM23,21.43a1.13,1.13,0,0,0-.84.32,1.46,1.46,0,0,0-.4,1h2.45a1.42,1.42,0,0,0-.34-.95A1.12,1.12,0,0,0,23,21.43Z"/><path class="cls-2" d="M32.4,25.78a4.44,4.44,0,0,0,1.38-.28v2.07a5.8,5.8,0,0,1-1.1.35,6.09,6.09,0,0,1-1.21.11,2.69,2.69,0,0,1-2.07-.7,3.17,3.17,0,0,1-.63-2.16v-3.4h-1V20.61L29,19.72,29.77,18h1.86v1.65h2v2.13h-2V25A.7.7,0,0,0,32.4,25.78Z"/><path class="cls-2" d="M39.26,27.88V17.25h2.89V27.88Z"/><path class="cls-2" d="M49.48,27.88V23.39a2.52,2.52,0,0,0-.24-1.24.8.8,0,0,0-.76-.42,1.11,1.11,0,0,0-1,.57,4.39,4.39,0,0,0-.32,2v3.61H44.28V19.64h2.14l.36,1H47a2.28,2.28,0,0,1,1-.88,3.62,3.62,0,0,1,1.48-.29,2.78,2.78,0,0,1,2.12.8,3.08,3.08,0,0,1,.76,2.23v5.36Z"/><path class="cls-2" d="M13,42.76H10.11V34.48H7.52V32.13h8.06v2.35H13Z"/><path class="cls-2" d="M24.8,38.62a4.37,4.37,0,0,1-1.09,3.16,4,4,0,0,1-3,1.13,4,4,0,0,1-3-1.16,4.32,4.32,0,0,1-1.11-3.13,4.32,4.32,0,0,1,1.09-3.13,4.09,4.09,0,0,1,3.05-1.12,4.41,4.41,0,0,1,2.15.52,3.54,3.54,0,0,1,1.44,1.48A4.85,4.85,0,0,1,24.8,38.62Zm-5.34,0a3.64,3.64,0,0,0,.29,1.62,1,1,0,0,0,.95.56,1,1,0,0,0,.93-.56,4.74,4.74,0,0,0,0-3.21,1,1,0,0,0-.95-.54,1,1,0,0,0-.93.54A3.43,3.43,0,0,0,19.46,38.62Z"/><path class="cls-2" d="M32.3,42.76l-.36-1h-.17a2.47,2.47,0,0,1-1,.87,3.49,3.49,0,0,1-1.5.3,2.81,2.81,0,0,1-2.11-.79,3.08,3.08,0,0,1-.76-2.23V34.52h2.84V39a2.59,2.59,0,0,0,.23,1.22.81.81,0,0,0,.76.42,1.07,1.07,0,0,0,1-.58,4.35,4.35,0,0,0,.32-1.95V34.52h2.84v8.24Z"/><path class="cls-2" d="M40.16,42.91a4.09,4.09,0,0,1-3.07-1.09,4.41,4.41,0,0,1-1-3.14,3.93,3.93,0,0,1,4.34-4.31,5.94,5.94,0,0,1,2.69.63l-.83,2.1a9.85,9.85,0,0,0-1-.36,3.13,3.13,0,0,0-.91-.13,1.22,1.22,0,0,0-1.07.54,2.53,2.53,0,0,0-.38,1.52c0,1.32.49,2,1.46,2a4.47,4.47,0,0,0,2.4-.72v2.26A4.62,4.62,0,0,1,40.16,42.91Z"/><path class="cls-2" d="M49.63,42.76V38.27c0-1.11-.33-1.66-1-1.66a1.1,1.1,0,0,0-1,.58,4.21,4.21,0,0,0-.33,2v3.62H44.44V31.44h2.84v1.61c0,.73,0,1.56-.11,2.49h.13a2.24,2.24,0,0,1,1-.9,2.93,2.93,0,0,1,1.3-.27,2.85,2.85,0,0,1,2.15.8,3.08,3.08,0,0,1,.76,2.23v5.36Z"/></g></g></svg>