<?xml version="1.0" encoding="utf-8"?>
<!-- Generator: Adobe Illustrator 24.1.0, SVG Export Plug-In . SVG Version: 6.00 Build 0)  -->
<svg version="1.1" id="Layer_1" xmlns="http://www.w3.org/2000/svg" xmlns:xlink="http://www.w3.org/1999/xlink" x="0px" y="0px"
	 viewBox="0 0 500 75.5" style="enable-background:new 0 0 500 75.5;" xml:space="preserve">
<style type="text/css">
	.st0{fill:#FFFFFF;}
	.st1{fill:#E5E5E5;}
	.st2{fill:#A5A5A5;}
</style>
<rect id="Rectangle_1485" class="st0" width="75.5" height="75.5"/>
<path id="Path_642" class="st1" d="M50.3,14.3H10.2l17.8,23.5h40.1L50.3,14.3"/>
<path id="Path_643" class="st2" d="M68.1,37.7H27.9L10.2,61.2h40.1L68.1,37.7"/>
<path id="Path_644" class="st0" d="M265.8,37.2c3.6-2.1,5.8-5.9,5.8-10.1c0-8.6-5.9-13.9-15.3-13.9h-19.8v49.2h20.6
	c9.3,0,15.1-5.5,15.1-14.2C272.5,43.6,269.9,39.2,265.8,37.2 M246.4,22.2h9.1c3.8,0,6.1,2,6.1,5.4s-2.3,5.4-6.1,5.4h-9.1L246.4,22.2
	z M256.1,53.5h-9.7V42h9.7c3.2-0.1,5.9,2.5,5.9,5.7c0.1,3-2.2,5.6-5.2,5.9L256.1,53.5L256.1,53.5z M197.9,44.7
	c-0.4-0.6-17.4-31.5-17.4-31.5h-9.7v49.2h9.9V33l17.1,29.8L215,33v29.3h9.9V13.2h-9.7C215.2,13.2,198.2,44,197.9,44.7L197.9,44.7z
	 M158.7,13.3h-9.9v49.1h9.9V13.3z M132.3,50.6c-7,5.6-17.3,4.4-22.8-2.6c-5.6-7-4.4-17.3,2.6-22.8c5.9-4.7,14.3-4.7,20.2,0l0.1,0.1
	l6.9-6.9l-0.2-0.1c-10.9-9.4-27.3-8.2-36.7,2.7s-8.2,27.3,2.7,36.7c9.8,8.4,24.2,8.4,34,0l0.2-0.2l-6.9-6.9L132.3,50.6z"/>
<path id="Path_645" class="st0" d="M371.9,43.4h16.4l-8.1-23.8h-0.1L371.9,43.4 M376.7,13.5h7.1l17.1,48.7H395l-4.7-13.1h-20.5
	l-4.5,13.4h-6.6L376.7,13.5"/>
<path id="Path_646" class="st0" d="M471,43.4h16.4l-8.1-23.8h-0.1L471,43.4 M475.8,13.5h7.1L500,62.2h-5.9l-4.6-13.1h-20.5
	l-4.5,13.4h-6.6L475.8,13.5"/>
<path id="Path_647" class="st0" d="M448.4,19.9c0,0-18.5-14.6-35,1c0,0-7.4,6.5-7,20.1c0,0,0.9,22.3,25.5,22.6
	c6.1-0.4,12-2.1,17.5-4.8V35.5h-16.3V40h11.5v15.3c0,0-16.9,8-26.4-1.6c0,0-7.6-4.2-6.1-18.5c0,0,3.2-17.4,20.8-16.4
	c0,0,9.6,1.2,12.1,5.3L448.4,19.9"/>
<rect id="Rectangle_1486" x="345.5" y="13.2" class="st0" width="5.1" height="49.1"/>
<path id="Path_648" class="st0" d="M327.3,13.2v40.2L298,13.2h-5.1v49.1h5.1V22l29.3,40.3h5.1V13.2H327.3"/>
</svg>
