<?xml version="1.0" encoding="utf-8"?>
<!-- Generator: Adobe Illustrator 24.1.0, SVG Export Plug-In . SVG Version: 6.00 Build 0)  -->
<svg version="1.1" id="Layer_1" xmlns="http://www.w3.org/2000/svg" xmlns:xlink="http://www.w3.org/1999/xlink" x="0px" y="0px"
	 viewBox="0 0 902 107" style="enable-background:new 0 0 902 107;" xml:space="preserve">
<style type="text/css">
	.st0{fill-rule:evenodd;clip-rule:evenodd;fill:#FFFFFF;}
	.st1{fill:#FFFFFF;}
</style>
<g id="g1630_1_">
	<path id="path1632_1_" class="st0" d="M351.1,35.3h0.4L362,63.9L340.3,67L351.1,35.3z M304.5,105.1h22.7l7.8-22.7l30.9-4.9
		l8.6,27.6h29.2L365.5,1.9c0,0-21.7-2-28.3,16.1S304.6,105.1,304.5,105.1"/>
</g>
<g id="g1634_1_">
	<path id="path1636_1_" class="st0" d="M444.7,15.1c1.8,3,28.2,52.9,28.2,52.9l-0.5-45c0-8-0.4-15.8-0.6-21.1
		c21.7,0,27.6,5.4,27.6,17.4v62.1c0,10.5,0,15.9,0.7,23.8c0,0-3.2-0.1-8.8-0.1c-14.3,0-21.4-2-28.1-13.3
		c-6.6-11.2-27.4-50.5-27.4-50.5V84c0,8,0,13.1,0.6,21h-28.2c0.6-7.9,0.6-15.7,0.6-23.7V25.7c0-10.5,0-15.9-0.6-23.8
		c0,0,3.2,0,8.5,0C429.3,1.9,437.1,2.5,444.7,15.1"/>
</g>
<g id="g1638_1_">
	<path id="path1640_1_" class="st0" d="M302,105.1c-0.7-7.9-0.7-13.2-0.7-23.8V25.6c0-7.9,0-15.8,0.7-23.7h-28.1
		c0.7,7.9,0.7,15.8,0.7,23.7v55.7c0,10.6,0,15.9-0.7,23.8H302z"/>
</g>
<g id="g1642_1_">
	<path id="path1644_1_" class="st0" d="M189.7,105.1c-0.6-7.9-0.6-13.2-0.6-23.8V25.6c0-7.9,0-15.8,0.6-23.7h-28.1
		c0.6,7.9,0.6,15.8,0.6,23.7v55.7c0,10.6,0,15.9-0.6,23.8H189.7z"/>
</g>
<g id="g1646_1_">
	<path id="path1648_1_" class="st0" d="M58.7,18.8l7.5-16.9H0c0.7,7.9,0.7,13.2,0.7,23.8v55.7c0,7.9,0,15.8-0.7,23.7h27.6
		C27,97.3,27,89.3,27,81.4V60.8h23.4V45.5H27V17.3C36.9,17.3,48,16.7,58.7,18.8"/>
</g>
<g id="g1650_1_">
	<path id="path1652_1_" class="st1" d="M98.4,48.2l5.6,0.6c11.9,0.1,20.3-5.8,20.3-15.9s-8.4-15.8-20.3-15.6l-5.6,0.6V48.2z
		 M105.4,1.8c32.1-1,42.8,17.1,42.8,31.1c0,13-7,24.1-18.7,28.4c6,10.7,27.8,43.1,27.8,43.1c-3.9,0.7-7.8,1.2-11.7,1.3
		c-10.1,0.5-19.8-4.1-26-12.1c-4.7-6.2-17.7-28.9-17.7-28.9h-3.6v15.5c0,7.5,0,13.6,1,24.9H70.9c1.6-14.9,0.5-27.1,0.5-51.6
		s1.1-36.7-0.5-51.6L105.4,1.8z"/>
</g>
<g id="g1654_1_">
	<path id="path1656_1_" class="st1" d="M197.1,75.6c3.4,3.1,16.5,13.9,30,13.9c8.8,0,15.1-4.4,15.1-11.2c0-8-6.3-10.5-19.9-16.6
		C207.2,54.9,198,47,198,32.6c0-19.9,18.6-32.5,39.9-32.5c7.2,0.1,14.3,1.2,21.1,3.3v22.3c-6.6-5.3-15.1-9.6-23.5-9.6
		c-8.4,0-12.3,4.7-12.3,9.3c0,7.6,6.8,9.4,25,17.7c16,7.2,20.1,17.9,20.1,28.5c0,18.9-15.4,34.7-41.2,34.7
		c-10.3-0.2-20.5-2.3-30-6.2L197.1,75.6z"/>
</g>
<g>
	<g id="g1658_1_">
		<path id="path1660_1_" class="st0" d="M673.7,105.9l7-16.9c-10.6,1.1-21.2,1.7-31.8,1.6V26.5c0-8,0-16,0.7-23.8h-28.2
			c0.7,7.8,0.7,15.8,0.7,23.8v55.7c0,10.5,0,15.8-0.7,23.7H673.7z"/>
	</g>
	<g id="g1662_1_">
		<path id="path1664_1_" class="st0" d="M726.9,36.1h0.4l10.5,28.6l-21.5,3.1L726.9,36.1z M680.5,105.9h22.7l7.8-22.7l30.9-4.9
			l8.5,27.6h29.2L741.4,2.7c0,0-21.7-2-28.3,16.1S680.5,105.9,680.5,105.9"/>
	</g>
	<g id="g1666_1_">
		<path id="path1668_1_" class="st0" d="M609.8,19.7l7.5-16.9h-66.2c0.7,7.9,0.7,13.2,0.7,23.8v55.7c0,8,0,15.9-0.7,23.7h27.6
			c-0.6-7.9-0.6-15.8-0.6-23.7V61.7h23.5V46.4h-23.5V18.2C588,18.2,599.1,17.5,609.8,19.7"/>
	</g>
	<g id="g1670_1_">
		<path id="path1672_1_" class="st1" d="M855.1,27.5c-6.4-7.5-15.9-11.6-25.8-11.3c-17.3,0-28.4,17.4-28.4,39.8
			c0,23.1,11.6,34.8,23.4,34.8l10.6-1.2c0.4-3.3,0.6-6.6,0.5-9.8c0-9,0-18.8-1.6-25.9l30.6-0.3c-1.6,7.1-1.6,16.9-1.6,25.9
			c0,7.4,0.3,16.6,0.5,18.9c-12.6,5.5-26.2,8.4-39.9,8.5c-30.7,0-51.2-19.4-51.2-48.4c0-32.9,25.9-58.1,59-58.1
			c8.1,0,16.2,1.2,24,3.4L855.1,27.5z"/>
	</g>
	<g id="g1674_1_">
		<path id="path1676_1_" class="st0" d="M880.4,17.4v-5.3h3.6c2.6,0,4,1,4,2.7s-1.1,2.6-4.4,2.6H880.4z M893.2,28.4l-2.3-3.8
			c-2-3.5-2.4-3.9-4.1-4.6c2.9-0.1,5.2-2.5,5.2-5.4c0-3.5-2.3-5.4-6.4-5.4h-9.2v19.2h3.9v-7.9h0.7c2.6,0,3.8,1,5.8,4.8l1.6,3.1
			L893.2,28.4z M898.4,18.8c-0.3,8.1-7.1,14.4-15.1,14.1c-7.7-0.3-13.8-6.4-14.1-14.1c-0.3-8.1,6-14.9,14.1-15.1s14.9,6,15.1,14.1
			C898.4,18.1,898.4,18.4,898.4,18.8 M902,18.8c0.3-10-7.5-18.4-17.5-18.8c-10-0.3-18.4,7.5-18.8,17.5c0,0.4,0,0.8,0,1.1v0.1
			c0,10,8.1,18,18,18l0,0c10,0,18-8.1,18-18"/>
	</g>
</g>
</svg>
