<svg id="Group_218" data-name="Group 218" xmlns="http://www.w3.org/2000/svg" width="45.287" height="45.287" viewBox="0 0 45.287 45.287">
  <path id="Path_298" data-name="Path 298" d="M363.243,17.1a22.643,22.643,0,1,0,22.643,22.643A22.624,22.624,0,0,0,363.243,17.1Zm13.533,29.25a3.508,3.508,0,0,1-3.037,2.77,98.215,98.215,0,0,1-10.5.373,98.717,98.717,0,0,1-10.5-.373,3.627,3.627,0,0,1-3.037-2.77,30.424,30.424,0,0,1-.48-6.607,30.424,30.424,0,0,1,.48-6.607,3.508,3.508,0,0,1,3.037-2.77,147.88,147.88,0,0,1,20.992,0,3.566,3.566,0,0,1,3.037,2.77,30.424,30.424,0,0,1,.48,6.607A30.424,30.424,0,0,1,376.776,46.35Z" transform="translate(-340.6 -17.1)" fill="#fff" fill-rule="evenodd"/>
  <path id="Path_299" data-name="Path 299" d="M376.4,59.617c2.984-1.545,5.914-3.09,8.9-4.582-2.984-1.545-5.914-3.09-8.9-4.635Zm0,0" transform="translate(-357.326 -32.658)" fill="#fff" fill-rule="evenodd"/>
  <path id="Path_300" data-name="Path 300" d="M412.1,73.8" transform="translate(-374.006 -43.591)" fill="#fff" fill-rule="evenodd"/>
</svg>
