<svg id="Group_215" data-name="Group 215" xmlns="http://www.w3.org/2000/svg" width="45.287" height="45.287" viewBox="0 0 45.287 45.287">
  <path id="Path_291" data-name="Path 291" d="M163,53.865Z" transform="translate(-137.959 -33.992)" fill="#fff"/>
  <path id="Path_292" data-name="Path 292" d="M138.643,16.6a22.643,22.643,0,1,0,22.643,22.643A22.624,22.624,0,0,0,138.643,16.6Zm-5.967,33.779h-5.434v-16.3h5.434Zm-2.717-18.488h0a2.8,2.8,0,0,1-3.037-2.824,3.045,3.045,0,1,1,3.037,2.824Zm22.217,18.488h-5.434V41.694c0-2.184-.8-3.676-2.717-3.676a2.949,2.949,0,0,0-2.77,1.971,3.524,3.524,0,0,0-.16,1.332v9.057H135.66s.053-14.758,0-16.3h5.381v2.291a5.416,5.416,0,0,1,4.9-2.664c3.57,0,6.234,2.344,6.234,7.3Z" transform="translate(-116 -16.6)" fill="#fff"/>
</svg>
