<?xml version="1.0" encoding="utf-8"?>
<!-- Generator: Adobe Illustrator 24.1.0, SVG Export Plug-In . SVG Version: 6.00 Build 0)  -->
<svg version="1.1" id="Layer_1" xmlns="http://www.w3.org/2000/svg" xmlns:xlink="http://www.w3.org/1999/xlink" x="0px" y="0px"
	 viewBox="0 0 509.2 249.8" style="enable-background:new 0 0 509.2 249.8;" xml:space="preserve">
<style type="text/css">
	.st0{fill:#FFFFFF;}
</style>
<path class="st0" d="M205.2,112c4.3-14.5-6.7-23.3-15-23.6c-14.1-0.7-33.2-0.9-42.2-0.7l-9.4,21.5h4.7l-9.3,49.4h22.2l5.5-26.1
	l14.8,26.1h28.2L184.1,130C184.1,130,201.7,127,205.2,112z M178.3,116.7c-3.9,1.6-14.2,2.5-14.2,2.5l2.9-16.5c0,0,8.4-0.2,10.8,0.8
	C185.8,105.8,182,116,178.3,116.7z"/>
<path class="st0" d="M130.6,103.6c-3.2-15-12.7-15.9-35.7-15.9l-24.6,0l-9.8,21.9l5.3,0.1l-9.6,48.9H79l4.4-23.4
	c0,0,23.5,2.3,33.8-4.5C125.9,124.9,131.3,116,130.6,103.6z M103.3,117.6c-2.8,3.5-16.9,2.4-16.9,2.4l3.1-16.6c0,0,4.7-0.5,12.2,0.2
	C109.3,104.8,106.1,115.8,103.3,117.6z"/>
<polygon class="st0" points="219.7,109.5 225.2,109.5 214.9,158.6 237.2,158.6 251.2,87.7 229.3,87.6 "/>
<polygon class="st0" points="312.7,124.5 303.1,87.6 281.2,87.6 268.1,107.7 273,108.7 252.7,158.6 275.1,158.6 290.1,119 
	301.4,158.6 310.4,158.6 337.9,119 336.6,158.6 358.9,158.6 360.1,87.6 337.7,87.6 "/>
<path class="st0" d="M412.3,87.6L396,103.9l4.4,2.1L366,158.6h23.8l8-12.4l30,0.1l3,12.2h23.9l-18.2-71H412.3z M407,131.7l13-21
	l4.2,21H407z"/>
<path class="st0" d="M508.1,122.2c-3.5-14.3-15.4-27.8-34.4-39.2c-15.9-9.5-36.1-17.1-57-21.6c-46.5-11.6-99.4-14.1-135.6-14.1
	c-18.5,0-32.1,0.7-37,0.9l43.3-23.6L238.7,0l2.8,13.4c-1,0-2.6,0-4.7,0c-30.8,0-136.5,3.7-203.6,51.8C7.1,86.7-3.7,107.7,1.1,127.6
	c3.5,14.3,15.4,27.8,34.4,39.2c15.9,9.5,36.1,17.1,57,21.6c46.5,11.6,99.4,14.1,135.6,14.1c0,0,0,0,0,0c18.5,0,32.1-0.7,37-0.9
	l-43.3,23.6l48.7,24.7l-2.8-13.4c1,0,2.6,0,4.7,0c30.8,0,136.5-3.7,203.6-51.8C502.2,163.1,513,142.1,508.1,122.2z M488.8,131.8
	c-2,17-19.6,30.9-34.7,41c-16.5,11.1-81.2,39.9-180.5,39.9c0,0,0,0,0,0c-2.2,0-4.3,0-6.5,0l1.3-12.8l-1.3,0.7l0-1.1
	c-1.9,0-192.7-4.8-236-54.7c-8.1-8.8-11.7-17.8-10.7-26.7c2-17,19.6-30.9,34.7-41c16.5-11.1,81.2-39.9,180.5-39.9c2.2,0,4.3,0,6.5,0
	L240.9,50l1.3-0.7l0,1.1c1.9,0,192.7,4.8,236,54.7C486.3,113.8,489.9,122.8,488.8,131.8z"/>
</svg>
