<svg xmlns="http://www.w3.org/2000/svg" xmlns:xlink="http://www.w3.org/1999/xlink" viewBox="0 0 516.55 516.55"><defs><style>.cls-1{isolation:isolate;}.cls-2,.cls-4{mix-blend-mode:screen;}.cls-2{fill:url(#radial-gradient);}.cls-3{fill:url(#linear-gradient);}.cls-4{opacity:0.5;fill:url(#radial-gradient-2);}.cls-5{fill:none;}</style><radialGradient id="radial-gradient" cx="258.28" cy="258.28" r="175.32" gradientTransform="translate(258.28 -106.98) rotate(45)" gradientUnits="userSpaceOnUse"><stop offset="0.63" stop-color="#01aaeb"/><stop offset="0.63" stop-color="#01aaeb" stop-opacity="0.94"/><stop offset="0.65" stop-color="#01aaeb" stop-opacity="0.74"/><stop offset="0.68" stop-color="#01aaeb" stop-opacity="0.57"/><stop offset="0.71" stop-color="#01aaeb" stop-opacity="0.41"/><stop offset="0.74" stop-color="#01aaeb" stop-opacity="0.28"/><stop offset="0.77" stop-color="#01aaeb" stop-opacity="0.18"/><stop offset="0.8" stop-color="#01aaeb" stop-opacity="0.1"/><stop offset="0.84" stop-color="#01aaeb" stop-opacity="0.04"/><stop offset="0.9" stop-color="#01aaeb" stop-opacity="0.01"/><stop offset="1" stop-color="#01aaeb" stop-opacity="0"/></radialGradient><linearGradient id="linear-gradient" x1="258.28" y1="147.47" x2="258.28" y2="369.08" gradientUnits="userSpaceOnUse"><stop offset="0" stop-color="#fff"/><stop offset="0.17" stop-color="#e3fcff"/><stop offset="0.31" stop-color="#c7f8fe"/><stop offset="1" stop-color="#73e7fe"/></linearGradient><radialGradient id="radial-gradient-2" cx="259.03" cy="274.88" r="110.82" gradientUnits="userSpaceOnUse"><stop offset="0.63"/><stop offset="0.66" stop-color="#090908"/><stop offset="0.71" stop-color="#23231e"/><stop offset="0.78" stop-color="#4d4d41"/><stop offset="0.86" stop-color="#868672"/><stop offset="0.95" stop-color="#cfcfb0"/><stop offset="1" stop-color="#ffffd8"/></radialGradient></defs><g class="cls-1"><g id="Layer_2" data-name="Layer 2"><g id="Layer_1-2" data-name="Layer 1"><circle class="cls-2" cx="258.28" cy="258.28" r="175.32" transform="translate(-106.98 258.28) rotate(-45)"/><path class="cls-3" d="M326.71,345.52a112.71,112.71,0,0,1-10,7H199.85a112.71,112.71,0,0,1-10-7ZM221.66,363a110.68,110.68,0,0,0,32.61,6.12h8A110.62,110.62,0,0,0,294.89,363Zm-49.52-34.89q3.33,4.11,7,7.88H337.37q3.7-3.76,7-7.88Zm-24.71-69.75a113,113,0,0,0,.58,11.39H368.54a113,113,0,0,0,.58-11.39v0H147.43ZM362.32,220a110.88,110.88,0,0,0-208.09,0Zm-209.27,3.4a109.22,109.22,0,0,0-3.48,13.16H367a111.08,111.08,0,0,0-3.47-13.16Zm7.49,87.21q2.42,4.51,5.23,8.76h185q2.81-4.25,5.23-8.76Zm-11.73-69.77a110.53,110.53,0,0,0-1.25,12.28H369a113,113,0,0,0-1.24-12.28Zm0,34.89c.56,3.56,1.3,7.07,2.19,10.52H365.56q1.35-5.17,2.19-10.52ZM153,293.19q1.62,4.92,3.7,9.64H359.81q2.07-4.71,3.7-9.64Z"/><path class="cls-4" d="M326.71,345.52a112.71,112.71,0,0,1-10,7H199.85a112.71,112.71,0,0,1-10-7ZM221.66,363a110.68,110.68,0,0,0,32.61,6.12h8A110.62,110.62,0,0,0,294.89,363Zm-49.52-34.89q3.33,4.11,7,7.88H337.37q3.7-3.76,7-7.88Zm-24.71-69.75a113,113,0,0,0,.58,11.39H368.54a113,113,0,0,0,.58-11.39v0H147.43ZM362.32,220a110.88,110.88,0,0,0-208.09,0Zm-209.27,3.4a109.22,109.22,0,0,0-3.48,13.16H367a111.08,111.08,0,0,0-3.47-13.16Zm7.49,87.21q2.42,4.51,5.23,8.76h185q2.81-4.25,5.23-8.76Zm-11.73-69.77a110.53,110.53,0,0,0-1.25,12.28H369a113,113,0,0,0-1.24-12.28Zm0,34.89c.56,3.56,1.3,7.07,2.19,10.52H365.56q1.35-5.17,2.19-10.52ZM153,293.19q1.62,4.92,3.7,9.64H359.81q2.07-4.71,3.7-9.64Z"/><rect class="cls-5" width="516.55" height="516.55"/></g></g></g></svg>