<?xml version="1.0" encoding="utf-8"?>
<!-- Generator: Adobe Illustrator 24.1.0, SVG Export Plug-In . SVG Version: 6.00 Build 0)  -->
<svg version="1.1" id="Layer_1" xmlns="http://www.w3.org/2000/svg" xmlns:xlink="http://www.w3.org/1999/xlink" x="0px" y="0px"
	 viewBox="0 0 1304.9 326.3" style="enable-background:new 0 0 1304.9 326.3;" xml:space="preserve">
<style type="text/css">
	.st0{fill:#FFFFFF;}
</style>
<g>
	<path class="st0" d="M755.4,259.9c-3.1-1.6-6.2-2.7-9.3-3.5c-3.2-0.7-10-2.3-15.1-2.6l3.8-0.6c22.4-2.8,33.4-13.3,33.2-29.8
		c0.1-11.5-5-19.6-15.2-24.4c-3.5-1.6-8.1-2.9-13.8-3.8c-5.7-0.9-12-1.4-19.1-1.4h-48.7v2.9c3.8,0,6.7,0.4,8.7,1.2
		c2.1,0.9,3.5,2.4,4.1,4.5c0.2,0.5,0.4,1.1,0.4,1.7c0.1,0.7,0.2,1.9,0.3,3.7l0.3,8.2v85.3c-0.1,4.4-0.2,7.7-0.3,9.7
		c-0.1,2-0.3,3.6-0.7,4.4c-0.3,0.9-0.9,1.6-1.6,2.2c-1.7,2.1-5.5,3-11.2,3v2.9H719c6.2,0,12-0.3,17.2-0.9c5.2-0.5,9.6-1.4,13.1-2.4
		c15.9-4.9,23.7-15.3,23.7-31.5C773.2,275.5,767.3,265.9,755.4,259.9 M699.7,197.8H717c23.4-0.1,35.4,8.6,35.3,26.4
		c-0.2,18.4-11.6,27.5-33.7,27.7h-18.9V197.8z M753.7,301.8c-1.6,4.2-3.9,7.6-6.9,10.1c-5.9,5.2-15.6,7.7-28.9,7.6h-18.2v-63.1h18.2
		c5.1,0,9.8,0.4,13.9,1.2c4.2,0.8,7.7,1.8,10.5,3.2c9.1,5,13.6,13.9,13.7,26.5C756.1,292.7,755.2,297.6,753.7,301.8 M1044.1,307.3
		l-25.6-40.3l9.8-10.6c3.5-3.8,6.2-6.7,8-8.5c1.9-1.9,3.5-3.4,4.8-4.4c1.4-1,3-2.1,5-3.3c1.9-1.2,3.8-2.1,5.7-2.8
		c1.7-0.5,3.7-1,6-1.2v-2.6h-38.5v2.6c7.2,0.4,11.6,2.4,11.4,6.7c0,3.1-2.3,7-6.5,11.7L994.7,287v-59.2c0-4.9,0.1-10.6,0.3-17.1
		c0.2-6.3,0.4-12.4,0.8-18.4l-26.9,1.4v2.6c3.6,0,6.4,0.3,8.2,0.9c2.1,0.7,3.5,2.5,4,5c0.5,2.4,0.7,6.2,0.7,11.3v88.1
		c0.1,5.5-0.2,9.7-0.7,12.4c-0.5,2.8-1.8,4.7-4,5.7c-1.8,0.8-4.3,1.2-7.7,1.2c-3.6-0.1-7.8-0.4-9.6-1.2c-2.2-0.9-3.5-2.8-4-5.7
		c-0.5-2.7-0.8-6.8-0.7-12.4v-37.5c0-5.4-0.4-9.8-1.1-13.3c-0.7-3.4-1.9-6.4-3.6-8.9c-4.5-7.4-12.1-11-23.1-10.9
		c-7.3,0-13.4,1.4-18.2,4.3c-4.8,2.9-9.2,7.7-13.1,14.5l-1.3,2.4v-20.7l-25.9,1.9v2.6c4.7-0.1,8.2,1,10,3.3
		c1.9,2.5,2.7,7.1,2.6,13.8v48.4c0.1,5.5-0.2,9.7-0.8,12.4c-0.6,2.8-1.9,4.7-4.1,5.7c-1.9,0.8-4.7,1.2-8.3,1.3
		c-5,0-7.6-0.4-10.3-1.4c-2.6-1-3.8-4.6-4.1-7.9c-0.3-3.3-0.5-6.3-0.5-10.2l0.2-8.3l0.2-17.2l0.3-12.5l0.1-4.7v-1
		c0-4.9-0.4-8.9-1.2-12.1c-0.8-3.1-2.1-5.8-3.8-7.9c-4.2-5.1-12.1-7.7-23.7-7.7c-10.6,0-19.3,1.9-26,5.7c-3.8,2.2-6.7,4.7-8.8,7.7
		c-2.1,2.9-3.1,5.9-3.1,9c-0.1,3,2.1,4.8,8.1,4.7c2.7,0,4.7-0.5,5.9-1.3c0.6-0.5,1-1,1.2-1.7c0.2-0.8,0.4-2.1,0.5-4
		c0.7-11.6,7.3-17.4,19.5-17.3c7.6,0,12.9,2.4,15.5,7.4c0.9,1.9,1.6,4.2,2,6.7c0.4,2.6,0.6,6,0.6,10.1l-0.7,12.1
		c-6.4,0.4-12.3,1-17.4,1.7c-5.1,0.7-10,1.6-14.7,2.6c-17.4,4-25.8,12.9-25.9,26.8c0,3.8,0.7,7.3,2,10.5c1.4,3.2,3.3,6,5.6,8.2
		c4.3,3.6,10.3,5.4,18,5.4c4.4,0,8.5-0.5,12-1.7c3.6-1.2,7.3-3.2,11.1-6c1.8-1.2,3.3-2.4,4.7-3.6c1.3-1.2,2.7-2.5,4-4.1l1.2-1.4
		l0.1,1.8c0.3,5.9,1,8.2,2,10.1c0.9,1.8,2.1,2.6,4.9,3.4c3.1,0.2,4.8,0.5,8.2,0.7c3.2,0,9.8-0.1,13.3-0.3h38.9V321
		c-3.7,0-6.5-0.4-8.5-1.3c-2.2-0.9-3.5-2.8-4-5.7c-0.6-2.7-0.8-6.8-0.7-12.4v-31.3c0-3.8,0.6-7.8,1.6-11.7c1.2-4,2.7-7.5,4.6-10.7
		c5.2-8.3,12.3-12.5,21-12.4c7.9,0,13.4,3.3,16.6,10c2,4.3,3,10.8,3,19.9v36.3c0,0.9-0.1,2.4-0.2,4.8c-0.1,2.3-0.2,4-0.3,5.3
		c-0.1,1.5-0.3,2.8-0.6,3.7c-0.3,1-0.8,1.9-1.4,2.6c-1.4,2-5.1,2.8-10.5,3v2.5h79.1V321c-3.6-0.1-6.4-0.5-8.3-1.3
		c-2.2-1-3.4-2.9-4-5.7c-0.5-2.7-0.7-6.8-0.7-12.4l0-9.3l14.9-16.7l19,31l2.8,5.1l3.7,6.8c1.2,2.1,2,3.8,2.7,5.1h23.4v-2.6
		c-3.6-0.5-6.6-1.7-8.9-3.5C1049.7,315.4,1047.1,312,1044.1,307.3 M840.7,281.2c0,5.9-0.3,11-1,15c-0.7,4-1.8,7.4-3.2,9.9
		c-2.5,4-5.8,7.3-10.1,9.8c-4.3,2.5-8.8,3.7-13.7,3.7c-4.8-0.1-8.7-1.9-11.5-5.6c-2.9-3.5-4.3-8.3-4.3-14.3c0-10,4.2-17.2,12.5-21.2
		c3.5-1.8,7.5-3.2,12-4.1c4.6-1,10.7-1.8,19.4-2.5V281.2z M84.6,202.4c-7.6-5.8-19.5-8.7-35.8-8.7H0.6v4.5c4.1,0.2,7.1,0.7,9.1,1.5
		c2,0.8,3.3,2.5,3.9,5c0.5,2.5,0.8,6.4,0.7,11.5v84.8c0.1,5.2-0.2,9-0.8,11.6c-0.6,2.5-2,4.2-4.1,4.9c-2,0.8-5.2,1.3-9.5,1.4v4.5
		h50.6v-4.5c-4.6-0.1-8-0.6-10.2-1.4c-2.3-0.8-3.7-2.4-4.3-4.9c-0.6-2.5-1-6.4-0.9-11.6v-32.2h7.8c6.8,0,12.9-0.4,18.5-1.3
		c5.5-0.8,10.1-1.9,13.7-3.3c13.7-5.5,20.6-16.9,20.6-34.5C95.9,217.4,92.2,208.2,84.6,202.4 M71.6,246c-1.4,4.4-3.3,8-5.9,10.8
		c-4.7,4.6-12.1,7-22.1,7.1h-8.3v-65.1h10.3c18.7,0,28,10.6,28,32.1C73.5,236.6,72.9,241.6,71.6,246 M176.4,261.6
		c-0.5-3.2-1.2-6-2.1-8.5c-2.8-7.5-7.1-13.1-12.9-17c-5.8-3.9-14.1-5.9-22.7-5.9c-12.8,0.1-24.7,4.5-32.2,13.1
		c-7.5,8.6-11.2,20.2-11.4,34.9c0.2,14.6,4.1,26.1,11.8,34.5c7.7,8.4,20.1,12.6,33.5,12.8c8.5,0,15.8-1.9,21.7-5.7
		c5.9-3.8,10.9-9.8,15-18l-4.1-2.8c-3.1,6.3-7,11.2-11.8,14.6c-4.7,3.4-9.9,5.1-15.7,5.1c-10.2,0-17.8-5.7-22.7-17.1
		c-1.4-3.5-2.5-7.4-3.2-11.7c-0.7-4.2-1.1-9.5-1.1-15.8h59C177.2,269,176.9,264.7,176.4,261.6 M118.6,269.3
		c0.4-4.5,0.8-8.2,1.4-11.3c0.6-3.1,1.2-5.9,2.1-8.6c3.6-10.2,9-15.2,16.2-15.3c6.4-0.1,11.3,4.4,14.3,13.5c0.9,2.6,1.6,5.5,2,8.7
		c0.4,3.3,0.7,7.6,0.9,13H118.6z M240,230.1c-10,0.2-18.6,6.7-25.7,19.7v-5.1c0-1.7,0-3.7-0.1-5.9c-0.1-2.3-0.2-5-0.4-8.2l-32.6,2.3
		v4.1c5.3-0.2,8.8,0.8,10.4,2.9c1.6,2.2,2.3,6.8,2.2,14V302c0,5.1-0.3,8.8-0.8,11.4c-0.5,2.4-1.8,4.1-3.7,4.9
		c-1.9,0.8-4.8,1.2-8.7,1.2v4.1h48.3v-4.1c-4.2-0.2-7.2-0.6-9.3-1.4c-2-0.7-3.3-2.3-3.9-4.7c-0.5-2.5-0.8-6.3-0.7-11.4v-32.2
		c0-4,0.4-7.6,1.1-10.7c0.7-3.1,1.7-6,3.2-8.6c3.1-5.1,6.3-7.9,9.7-8.2h0.4c1.4-0.1,2.4,0.4,3,1.2c0.6,0.9,1.4,2.5,2,4.9
		c1,3.8,3.7,5.7,8.1,5.6c3.8,0,6.7-1,9-2.9c2.3-2,3.5-4.6,3.5-7.7c-0.1-3.9-1.5-7-4.2-9.5C247.9,231.4,244.4,230.2,240,230.1
		 M407.2,313.3c-0.5-2.5-0.8-6.3-0.8-11.4v-38.2c0-5.9-0.4-10.6-1.2-14.2c-0.8-3.7-2.1-6.7-4-9.3c-4.9-6.7-12.4-10-22.6-10.1
		c-6.5,0-12.1,1.4-17,4.4c-4.9,2.9-9.1,7.6-13,13.9c-3.1-12.2-11.3-18.3-24.6-18.3c-13.1,0.1-23.2,6-30.3,17.6l-0.1-17.2l-33.9,2.3
		v4.1c5.6-0.1,9.2,0.8,10.7,2.9c1.6,2.1,2.3,6.7,2.2,13.7V302c0.1,5.1-0.2,8.9-0.8,11.5c-0.6,2.4-1.8,4-3.7,4.8
		c-1.9,0.7-4.8,1.2-8.8,1.2v4.1h47.1v-4.1c-3.8,0-6.6-0.4-8.4-1.2c-1.8-0.8-3-2.4-3.6-4.8c-0.6-2.6-0.8-6.3-0.8-11.5v-35.3
		c0.2-8,2.3-14.7,6.3-20.2c4-5.4,8.9-8.1,14.8-8.3c9.5-0.2,14.1,8.3,14.1,25.6V302c0,5.1-0.2,8.8-0.7,11.4c-0.6,2.4-1.8,4.1-3.6,4.9
		c-1.9,0.8-4.7,1.2-8.4,1.2v4.1h46.5v-4.1c-3.9,0-6.6-0.4-8.5-1.2c-1.9-0.8-3.1-2.5-3.7-4.9c-0.5-2.5-0.8-6.3-0.7-11.4v-36.7
		c0-6.3,1.8-12.2,5.4-17.6c4.2-6.5,9.4-9.7,15.4-9.6c5.1-0.1,8.8,1.9,11.1,5.9c2.3,4.1,3.4,10.7,3.3,19.9V302
		c0.1,5.1-0.2,8.8-0.7,11.4c-0.5,2.4-1.7,4.1-3.5,4.9c-1.8,0.8-4.6,1.2-8.4,1.2v4.1h47.1v-4.1c-3.9,0-6.9-0.4-8.7-1.2
		C409,317.4,407.8,315.8,407.2,313.3 M553.5,318.6c-1.8,0-3.5-0.6-5.1-1.7c-1.5-1.2-2.7-2.8-3.4-4.7c-0.6-1.7-1-3.8-1.3-6.2
		c-0.3-2.5-0.4-5.6-0.4-9.4v-58.1h21.1v-5.6h-21.1c0-5.2,0-9.5,0-12.8c0-3.4,0.1-6.2,0.2-8.6c0.1-2.4,0.2-4.7,0.3-7l-8.7,0.9
		c-0.8,4.2-1.7,7.8-2.7,10.7c-1,2.9-2.2,5.5-3.8,7.8c-1.9,3.2-4.3,5.4-6.9,6.9c-2.6,1.4-5.8,2.2-9.6,2.3v5.2h9.9v54.3
		c0,5.1,0.1,9.1,0.2,12.1c0.1,3,0.4,5.4,0.8,7.1c0.4,1.8,0.9,3.4,1.6,4.7c3.5,6.3,10,9.4,19.6,9.6c8.9,0,16.9-2.9,23.8-8.7l-2.4-4.3
		C561.3,316.8,557.3,318.5,553.5,318.6 M500.8,312.2c-0.5-2.9-0.7-7.4-0.6-13.7c0-1.3,0-4.5,0.2-9.4l0.2-15.1l0.2-15.2
		c0-5.3-0.5-9.6-1.6-13.1c-1.1-3.5-2.8-6.3-5.2-8.5c-5.2-4.8-13.7-7.2-25.7-7.1c-11.8-0.1-21.2,2.2-28.5,6.7
		c-3.4,2.1-6.1,4.6-7.9,7.4c-1.9,2.7-2.8,5.7-2.9,8.8c0.1,5.2,4.1,7.9,12.2,8c3.6,0,6.2-0.6,7.9-1.9c1.6-1.3,2.5-3.6,2.7-6.7
		c0.3-3.2,0.6-5.7,0.9-7.5c0.4-1.8,1-3.4,1.8-4.8c2.4-4.1,6.2-6.1,11.7-5.9c5.1-0.2,8.7,1.5,10.7,5c1.9,3.5,2.9,9.8,2.9,18.8v11.4
		c-10.7,0.5-20.2,1.6-28.5,3.3c-18.6,3.6-27.9,12.9-27.8,27.8c0.1,7.9,2.4,14.1,7.2,18.7c4.8,4.5,11.2,6.8,19.6,6.9
		c5.6,0,10.8-1.1,15.7-3.4c4.8-2.3,9.5-5.8,14-10.7c0.4,5.3,1.2,5.3,2.3,7.2c1.7,1.8,2.9,2.5,5.2,3.3c3.6,1.4,8,1.5,12.3,1.5
		c5.3,0,7.4,0,12.5-0.4v-3.7c-2.3,0-5.2,0.1-8.4-1.9C501.7,316.4,501.2,315.2,500.8,312.2 M479.7,286.6c0,5-0.2,9-0.7,12.2
		c-0.4,3.2-1.3,5.9-2.5,8.1c-1.7,3.6-4,6.4-7,8.4c-3,2-6.2,3.1-9.8,3.1c-4.3,0-7.8-2-10.2-5.6c-2.5-3.7-3.8-8.7-3.9-14.9
		c-0.2-8,2.4-13.8,7.7-17.6c5.2-3.8,14-6.1,26.5-6.9V286.6z M650.4,312.3c-0.4-2.9-0.7-7.5-0.6-13.7c0-1.3,0-4.5,0.2-9.4l0.1-15.1
		l0.2-15.1c0-5.4-0.5-9.7-1.7-13.1c-1.1-3.5-2.8-6.3-5.1-8.5c-5.1-4.8-13.8-7.2-25.7-7.1c-11.8-0.1-21.2,2.1-28.5,6.6
		c-3.4,2.1-6,4.6-7.9,7.4c-1.9,2.8-2.8,5.7-2.9,8.8c0,5.2,4.1,7.9,12.2,8c3.7,0,6.3-0.6,7.9-1.9c1.7-1.3,2.6-3.6,2.7-6.7
		c0.2-3.2,0.5-5.7,0.9-7.5c0.4-1.8,1-3.4,1.8-4.8c2.3-4.1,6.2-6.1,11.7-5.9c5.1-0.2,8.7,1.5,10.7,5c2,3.5,3,9.8,2.9,18.8v11.4
		c-10.7,0.5-20.2,1.6-28.5,3.3c-18.6,3.6-27.8,12.9-27.8,27.8c0.1,7.9,2.5,14.1,7.2,18.7c4.7,4.5,11.2,6.8,19.6,6.9
		c5.7,0,10.8-1.2,15.7-3.4c4.9-2.3,9.6-5.9,14-10.8c0.4,5.3,1.1,5.4,2.3,7.2c1.7,1.8,2.9,2.5,5.2,3.3c3.7,1.4,8,1.5,12.3,1.5
		c5.3,0,7.4,0,12.5-0.4v-3.7c-2.3,0-5.1,0.1-8.5-1.8C651.4,316.4,650.9,315.2,650.4,312.3 M629.4,286.6c0,5-0.3,9-0.8,12.2
		c-0.5,3.2-1.3,5.8-2.4,8.1c-1.7,3.6-4.1,6.4-7,8.5c-3,2-6.3,3-9.8,3.1c-4.3-0.1-7.7-2-10.3-5.7c-2.5-3.7-3.7-8.7-3.8-14.9
		c-0.2-8,2.4-13.8,7.6-17.6c5.3-3.8,14-6.1,26.6-6.9V286.6z M1304.6,102.5l-74.5-34.3l21.4,34.5L1304.6,102.5z M1256.1,119.3
		l48.7-1.9l-0.1-10.7l-51.6,0.1L1256.1,119.3z M1247.4,103.8l-21-33.5l-5.1,2.9l17.6,34.8L1247.4,103.8z M1239.6,112.4l-53.9,159.8
		l66.3-150l-3.1-14.4L1239.6,112.4z M1256,123.7l-87.4,199.4l6.7-1.9l129.6-199.5L1256,123.7z M1217.6,75.3l-55.5,240.4l2.7,5.2
		l70.7-210.2L1217.6,75.3z M1146.2,18.8L1104.8,5l-2,3.8l38.7,15.6L1146.2,18.8z M1204.3,0l-97.5,1.1l43,14.5L1204.3,0z
		 M1162.5,24.6l48.7-17.4l-3.6-3.7l-53.3,15.2L1162.5,24.6z M1163.6,178l3.5-2l47.4-165.4l-50.3,18L1163.6,178z M1100.9,12.6
		l54.3,163.7l4.3,1.8l-19.4-149.7L1100.9,12.6z M1144.3,27.7l15.2,117.4l0.5-117l-9.8-7.2L1144.3,27.7z M1087.7,71.7l-64.5,32.5
		l36.1,1.4L1087.7,71.7z M1057.8,109.9l-34.8-1.4l-0.2,3.5l34.6,4.7L1057.8,109.9z M1072.9,111l25.6-32l-7.3-4.9l-27.6,32.9
		L1072.9,111z M1076.1,113.9l78.1,148l2-4.3l-54-176.1L1076.1,113.9z M1061.5,118.5l65.4,100.9l-54.9-104l-9.9-4.3L1061.5,118.5z
		 M1022.6,116.3l121.7,146.4l6.3,1.1l-92.6-142.7L1022.6,116.3z"/>
</g>
</svg>
