<?xml version="1.0" encoding="utf-8"?>
<!-- Generator: Adobe Illustrator 24.0.3, SVG Export Plug-In . SVG Version: 6.00 Build 0)  -->
<svg version="1.1" id="Layer_1" xmlns="http://www.w3.org/2000/svg" xmlns:xlink="http://www.w3.org/1999/xlink" x="0px" y="0px"
	 viewBox="0 0 2206 651" style="enable-background:new 0 0 2206 651;" xml:space="preserve">
<style type="text/css">
	.st0{fill:#C4C4C4;}
	.st1{fill:#FFFFFF;}
	.st2{fill:#69C9D0;}
	.st3{fill:#E2E2E2;}
	.st4{fill:none;}
</style>
<g>
	<g>
		<path class="st0" d="M206,463.3l2.1,6C207.8,468.7,207,466.5,206,463.3z M106.9,420.4c3.8-32.4,16.5-50.5,40.5-69.1
			c34.3-25.2,77.2-10.9,77.2-10.9v-84.5c10.4-0.3,20.9,0.4,31.2,1.9v108.7c0,0-42.9-14.2-77.2,10.9c-24,18.6-36.7,36.7-40.5,69.1
			c-0.1,17.6,3,40.6,17.6,60.5c-3.6-1.9-7.3-4.1-11-6.6C112.5,478,106.7,444.3,106.9,420.4z M432.8,99.6
			c-23.6-27-32.6-54.3-35.8-73.4h29.7c0,0-5.9,50.2,37.3,99.6l0.6,0.7C453,118.8,442.3,109.8,432.8,99.6z"/>
		<path class="st0" d="M576,176.2v106.5c0,0-37.9-1.5-66-9c-39.2-10.4-64.4-26.4-64.4-26.4s-17.4-11.4-18.8-12.2v220.1
			c0,12.2-3.2,42.8-13,68.4c-12.8,33.4-32.6,55.3-36.2,59.8c0,0-24,29.6-66.4,49.6c-38.2,18-71.7,17.5-81.8,18c0,0-58,2.4-110.2-33
			c-11.3-7.8-21.8-16.6-31.5-26.4l0.3,0.2c52.2,35.4,110.2,33,110.2,33c10-0.5,43.6,0,81.8-18c42.4-19.9,66.4-49.6,66.4-49.6
			c3.6-4.5,23.4-26.4,36.2-59.8c9.8-25.5,13-56.1,13-68.4V209c1.4,0.8,18.8,12.2,18.8,12.2s25.2,16,64.4,26.4c28.1,7.4,66,9,66,9
			v-83.5C557.7,176.1,568.8,177,576,176.2L576,176.2z"/>
	</g>
	<path class="st1" d="M544.8,173.1v83.5c0,0-37.9-1.5-66-9c-39.2-10.4-64.4-26.4-64.4-26.4s-17.4-11.4-18.8-12.2V429
		c0,12.3-3.2,42.9-13,68.4c-12.8,33.4-32.6,55.3-36.2,59.8c0,0-24,29.6-66.4,49.6c-38.2,18-71.7,17.5-81.8,18c0,0-58,2.4-110.2-33
		l-0.3-0.2c-5.5-5.6-10.7-11.4-15.5-17.6c-16.7-21.2-26.9-46.2-29.4-53.4c0,0,0-0.1,0-0.1c-4.1-12.4-12.8-42.3-11.6-71.1
		c2.1-51,19.3-82.3,23.8-90.1c12-21.4,27.7-40.5,46.3-56.5c16.4-13.8,35-24.8,55-32.6c12.5-5.2,25.5-9,38.8-11.4
		c9.7-1.7,19.6-2.7,29.5-2.9v84.5c0,0-42.9-14.2-77.2,10.9c-24,18.6-36.7,36.7-40.5,69.1c-0.2,23.9,5.7,57.6,37.8,80.1
		c3.7,2.5,7.4,4.7,11,6.6c5.6,7.6,12.4,14.2,20.2,19.5c31.3,20.7,57.6,22.1,91.1,8.7c22.4-8.9,39.2-29.1,47.1-51.6
		c4.9-14,4.8-28.1,4.8-42.7V26.2h78.1c3.2,19.2,12.2,46.4,35.8,73.4c9.5,10.2,20.1,19.2,31.8,26.8c3.4,3.7,21,22,43.6,33.3
		C519.9,165.6,532.1,170.1,544.8,173.1z"/>
	<path class="st2" d="M11.8,494.7L11.8,494.7l1.9,5.6C13.5,499.6,12.8,497.6,11.8,494.7z"/>
	<path class="st3" d="M156.3,270.2c-20,7.7-38.6,18.7-55,32.6c-18.6,16.1-34.2,35.2-46.3,56.6c-4.5,7.8-21.7,39.1-23.8,90.1
		c-1.2,28.9,7.5,58.7,11.6,71.1c0,0,0,0.1,0,0.1c2.6,7.1,12.8,32.1,29.4,53.4c4.8,6.2,10,12,15.5,17.6c-17.7-12.2-33.4-27-46.7-43.8
		c-16.5-21-26.7-45.8-29.3-53.1l-0.1-0.2v-0.1c-4.1-12.4-12.8-42.2-11.6-71.2c2.1-51,19.3-82.3,23.8-90.1
		c12-21.4,27.7-40.6,46.3-56.6c16.4-13.8,35-24.8,55-32.6c12.5-5.2,25.5-9,38.8-11.4c20-3.5,40.5-3.8,60.6-0.9v24.1
		c-9.9,0.2-19.7,1.1-29.5,2.8C181.8,261.1,168.8,265,156.3,270.2L156.3,270.2z"/>
	<path class="st3" d="M397.1,26.2h-78.1v414.9c0,14.6,0.1,28.6-4.8,42.7c-7.9,22.4-24.7,42.7-47,51.7c-33.6,13.5-59.8,12-91.1-8.7
		c-7.7-5.4-14.6-12-20.2-19.5c26.7,14.2,50.6,14,80.1,2.1c22.2-9,39.2-29.3,47-51.7c4.9-14,4.9-28.1,4.9-42.7V0h107.9
		C395.6,0,394.4,10.3,397.1,26.2L397.1,26.2z M544.8,150v23.1c-12.7-3-24.9-7.5-36.6-13.3c-22.6-11.3-40.1-29.6-43.6-33.3
		c4,2.6,8.1,5,12.4,7.1C504.5,147.3,531.4,151.4,544.8,150z"/>
	<path class="st4" d="M1701.8,383.9c-1.7-5.7-2.6-11.6-2.6-17.5v-0.4C1699.2,372,1700,378,1701.8,383.9z M1830.9,365.9v0.4
		c0,5.9-0.9,11.8-2.6,17.5C1830,378,1830.9,372,1830.9,365.9z"/>
	<path class="st3" d="M1699.2,366.4c0,5.9,0.9,11.8,2.6,17.5c0.1,0.4,0.2,0.8,0.4,1.2c8.6,27.6,34.1,46.3,62.9,46.3v66.7
		c-32.4,0-55.7,1.1-91-19.8c-40.4-23.9-63-67.5-63-112.8c0-46.7,25.4-93.5,68.4-116c31.2-16.4,54.9-16.5,85.7-16.5v66.6
		c-36.4,0-65.9,29.5-65.9,65.9L1699.2,366.4z"/>
	<path class="st0" d="M1831.4,366.4c0,5.9-0.9,11.8-2.6,17.5c-0.1,0.4-0.2,0.8-0.4,1.2c-8.5,27.6-34.1,46.4-62.9,46.3v66.7
		c32.4,0,55.7,1.1,91-19.8c40.4-23.9,63.1-67.5,63.1-112.8c0-46.7-25.4-93.5-68.4-116c-31.2-16.4-54.9-16.5-85.7-16.5v66.6
		c36.4,0,65.9,29.5,65.9,65.9L1831.4,366.4z"/>
	<path class="st1" d="M745.2,172.5h244l-22.6,67.1h-63.8v257h-78.6v-257h-79.1L745.2,172.5z M1391.9,172.5v67.1h79.1v257h78.6v-257
		h63.8l22.6-67.1H1391.9z M1042.3,249.1c21,0,38-17,38-38s-17-38-38-38c-21,0-38,17-38,38S1021.3,249.1,1042.3,249.1L1042.3,249.1z
		 M1004.2,496.6h77V275.9h-77V496.6z M1358.4,247.2h-90.1l-77.6,77.7V172.8h-76.5l-0.3,323.9h77.3v-84.4l24.1-21.8l75,106.2h82.6
		l-108.6-155.3L1358.4,247.2z M2097.4,341.4l94.2-94.2h-90.1l-77.6,77.7V172.8h-76.5l-0.2,323.9h77.3v-84.4l24.1-21.8l75,106.2h82.5
		L2097.4,341.4z M1899.3,365.5c0,73.2-60.1,132.5-134.3,132.5c-74.2,0-134.3-59.3-134.3-132.5S1690.8,233,1765,233
		S1899.3,292.3,1899.3,365.5L1899.3,365.5z M1830.9,365.5c0-36.4-29.5-65.9-65.9-65.9c-36.4,0-65.9,29.5-65.9,65.9
		c0,36.4,29.5,65.9,65.9,65.9l0,0C1801.4,431.4,1830.9,401.9,1830.9,365.5C1830.9,365.5,1830.9,365.5,1830.9,365.5L1830.9,365.5z"/>
</g>
</svg>
