<?xml version="1.0" encoding="UTF-8"?>
<svg width="410px" height="89px" viewBox="0 0 410 89" version="1.1" xmlns="http://www.w3.org/2000/svg" xmlns:xlink="http://www.w3.org/1999/xlink">
    <!-- Generator: Sketch 56.2 (81672) - https://sketch.com -->
    <title>Tokopedia Logo White</title>
    <desc>Created with Sketch.</desc>
    <g id="v08" stroke="none" stroke-width="1" fill="none" fill-rule="evenodd">
        <g id="Tokopedia-Logo-White" transform="translate(-0.000000, 0.000000)" fill="#FFFFFF">
            <path d="M219.135,61.998 C214.682,66.516 209.353,68.792 203.178,68.792 C198.185,68.792 193.939,67.771 189.607,65.255 L189.607,54.893 C193.093,57.255 197.468,59.506 201.789,59.506 C210.795,59.506 216.16,53.307 216.16,44.521 C216.16,35.726 210.61,29.342 201.602,29.342 C197.573,29.342 194.314,30.789 191.764,33.688 C189.031,36.832 187.62,41.323 187.62,47.26 L187.62,88.181 L186.941,88.181 C181.978,88.181 177.952,84.156 177.952,79.193 L177.952,45.726 C177.952,31.525 186.636,20.059 201.559,20.059 C208.923,20.059 214.908,22.577 219.445,27.638 C223.711,32.365 225.827,38.361 225.827,45.57 C225.827,51.988 223.598,57.474 219.135,61.998 Z M323.806,61.654 C319.368,66.416 313.659,68.792 306.732,68.792 C299.428,68.792 293.471,66.27 288.94,61.21 C284.678,56.424 282.558,50.426 282.558,43.278 C282.558,30.628 292.326,20.059 305.169,20.059 C310.128,20.059 314.431,21.101 318.78,23.488 L318.78,33.955 C315.291,31.593 310.915,29.342 306.598,29.342 C297.592,29.342 292.227,35.54 292.227,44.328 C292.227,53.003 297.902,59.506 306.782,59.506 C310.802,59.506 314.116,57.996 316.765,54.963 C319.396,51.945 320.765,47.514 320.765,41.559 L320.765,8.989 C320.765,4.026 324.789,2.27373675e-13 329.757,2.27373675e-13 L330.432,2.27373675e-13 L330.432,43.086 C330.432,50.676 328.238,56.886 323.806,61.654 Z M351.104,15.458 C350.088,16.594 348.634,17.118 346.857,17.118 C343.541,17.118 341.168,14.668 341.168,11.378 C341.168,8.007 343.499,5.732 346.857,5.732 C350.094,5.732 352.552,8.13 352.552,11.378 C352.552,12.984 352.083,14.36 351.104,15.458 Z M400.222,41.559 C400.222,37.749 398.781,34.733 395.88,32.445 C393.271,30.389 390.008,29.342 386.048,29.342 C377.299,29.342 371.684,36.181 371.684,44.613 C371.684,52.734 377.633,59.506 385.959,59.506 C391.743,59.506 394.841,56.123 398.142,51.914 L398.142,64.058 C396.458,65.317 394.524,66.69 392.548,67.496 C390.465,68.367 387.981,68.792 385.106,68.792 C371.192,68.792 362.015,57.266 362.015,43.947 C362.015,37.108 364.139,31.456 368.415,27.046 C372.955,22.376 378.904,20.059 386.191,20.059 C400.007,20.059 409.891,27.99 409.891,42.322 L409.891,67.836 L409.211,67.836 C404.247,67.836 400.222,63.812 400.222,58.848 L400.222,41.559 Z M267.888,38.823 C266.663,35.043 265.134,33.185 261.608,31.219 C253.234,26.536 244.99,30.52 241.153,38.785 L267.888,38.823 Z M260.512,68.649 C254.336,69.959 248.277,68.949 242.367,65.648 C236.602,62.425 232.736,57.634 230.803,51.309 C226.891,38.511 234.908,24.249 247.798,20.793 C254.188,19.082 260.318,19.858 266.139,23.113 C275.81,28.516 279.333,36.877 278.719,47.651 L239.771,47.57 C240.343,51.965 243.069,55.404 246.896,57.542 C250.777,59.712 254.348,60.23 257.662,59.202 C261.336,58.047 264.318,55.048 266.745,52.254 L274.684,58.037 C271.444,63.83 267.035,67.259 260.512,68.649 Z M342.026,21.013 L351.691,21.013 L351.691,67.836 L351.014,67.836 C346.053,67.836 342.026,63.812 342.026,58.848 L342.026,21.013 L342.026,21.013 Z" id="Fill-28"></path>
            <path d="M14.145,67.836 C4.694,67.836 -1.42108547e-13,61.404 -1.42108547e-13,52.424 L-1.42108547e-13,18.349 C-1.42108547e-13,13.385 4.023,9.361 8.99,9.361 L9.667,9.361 L9.667,21.013 L26,21.013 L26,30.299 L9.667,30.299 L9.667,53.498 C9.667,57.444 11.429,58.553 15.197,58.553 L26,58.553 L26,67.836 L14.145,67.836 Z M70.291,61.916 C65.511,66.497 59.772,68.792 53.104,68.792 C46.498,68.792 40.788,66.495 36.016,61.916 C31.223,57.321 28.832,51.473 28.832,44.425 C28.832,30.674 39.336,20.059 53.104,20.059 C59.713,20.059 65.435,22.373 70.241,26.981 C75.064,31.606 77.471,37.437 77.471,44.425 C77.471,51.473 75.08,57.321 70.291,61.916 Z M115.484,32.279 C114.066,34.657 112.968,36.364 112.194,37.394 C111.34,38.513 110.499,39.409 109.666,40.026 C116.384,42.199 118.886,46.853 118.886,53.787 L118.886,67.836 L118.206,67.836 C113.241,67.836 109.216,63.812 109.216,58.848 L109.216,54.739 C109.216,50.252 107.206,47.203 102.447,47.203 L93.667,47.203 L93.667,67.836 L92.99,67.836 C88.025,67.836 84,63.812 84,58.848 L84,8.989 C84,4.026 88.025,-2.84217094e-13 92.99,-2.84217094e-13 L93.667,-2.84217094e-13 L93.667,37.822 L96.524,37.822 C99.663,37.822 101.729,36.751 102.911,34.719 L111.033,21.015 L122.049,21.005 L115.484,32.279 Z M165.387,61.916 C160.611,66.497 154.87,68.792 148.201,68.792 C141.597,68.792 135.889,66.495 131.111,61.916 C126.321,57.321 123.933,51.473 123.933,44.425 C123.933,30.674 134.432,20.059 148.201,20.059 C154.812,20.059 160.535,22.373 165.34,26.981 C170.161,31.606 172.57,37.437 172.57,44.425 C172.57,51.473 170.179,57.321 165.387,61.916 Z M158.41,33.53 C155.746,30.74 152.358,29.342 148.201,29.342 C139.305,29.342 133.98,35.829 133.98,44.425 C133.98,52.902 139.433,59.506 148.201,59.506 C156.976,59.506 162.421,52.902 162.421,44.425 C162.421,39.924 161.072,36.313 158.41,33.53 Z M63.31,33.53 C60.646,30.74 57.262,29.342 53.104,29.342 C44.206,29.342 38.883,35.829 38.883,44.425 C38.883,52.902 44.335,59.506 53.104,59.506 C61.875,59.506 67.327,52.902 67.327,44.425 C67.327,39.924 65.976,36.313 63.31,33.53 L63.31,33.53 Z" id="Fill-29"></path>
        </g>
    </g>
</svg>