<svg xmlns="http://www.w3.org/2000/svg" viewBox="0 0 1547.78 1547.78"><defs><style>.cls-1{fill:#fff;}.cls-2{fill:none;}</style></defs><g id="Layer_2" data-name="Layer 2"><g id="Layer_1-2" data-name="Layer 1"><path class="cls-1" d="M947.37,100.8q-5.24,29.42-24.33,42.06T873.23,150L840,144.12,861.15,25.34l36.73,6.54Q926.23,36.94,939.27,55T947.37,100.8Zm-20.58-3q7.59-42.64-32.3-49.76l-16.81-3-15.36,86.2,13.81,2.46Q919,141.35,926.79,97.8Z"/><path class="cls-1" d="M1028.69,95.16a46.64,46.64,0,0,1,8.88,3.88L1030,115.55a36.47,36.47,0,0,0-7.82-3.69q-11-3.73-20.29,1.14t-13.16,16.37l-15.29,45.18-18.37-6.21,29.26-86.46,14.38,4.87L996,102.81l.94.32a36.13,36.13,0,0,1,15.37-8.47A28.09,28.09,0,0,1,1028.69,95.16Z"/><path class="cls-1" d="M1038.7,200.34,1021,192.48l37-83.42,17.72,7.86Zm28-113.85q2.12-4.76,5.85-6.16t8.57.73c3.12,1.38,5.16,3.32,6.14,5.8s.76,5.3-.65,8.47a10.55,10.55,0,0,1-5.76,6c-2.51,1-5.32.76-8.44-.63s-5.31-3.39-6.27-5.9A10.55,10.55,0,0,1,1066.75,86.49Z"/><path class="cls-1" d="M1079.27,220.91l15.49-96.39,17.74,10.2L1102.12,190q-2.52,14-5.77,21.62l.57.33q3.6-4.77,15.79-15.85l42.56-36.73,17.88,10.29-75.71,61.73Z"/><path class="cls-1" d="M1165.76,280.73q-16.77-13.12-18.56-30.3t11.62-34.34q13.79-17.59,30.45-20.81t32,8.8q14.22,11.13,15.71,26.24t-10.36,30.24l-6.46,8.25-47.89-37.48q-7.86,10.71-6.94,20.51t10.62,17.37a70.61,70.61,0,0,0,12.8,8.08,79.26,79.26,0,0,0,14.92,5.23l-9.72,12.41a59.34,59.34,0,0,1-14.25-5.08A88.08,88.08,0,0,1,1165.76,280.73Zm46.44-65.08q-7.28-5.7-15.27-4.52t-15.76,9.36L1213.79,246q6.84-9,6.26-16.84T1212.2,215.65Z"/><path class="cls-1" d="M1262.63,371.92l-13.31-14.22,41-38.35q7.71-7.22,8.6-13.87t-5.43-13.41q-8.4-9-17.6-8.16t-21.66,12.48L1221,327.47l-13.25-14.16,66.62-62.38L1284.75,262l-6.88,10.17.68.72a27.1,27.1,0,0,1,15.36,1.67,39.43,39.43,0,0,1,14.1,9.87q22.44,24-2,46.81Z"/><path class="cls-1" d="M1404.74,417.47q8.57,14.77,2.65,29.23t-25.26,25.69q-19.41,11.26-35.07,9.19t-24.28-16.92q-8.7-15-2.72-29.52l-.67-1.14-11.13,2.36L1301,423.79l111-64.45,9.74,16.77-26.41,15.33q-2.92,1.69-8.87,4.77t-7.6,3.83l.41.72Q1395.72,401.92,1404.74,417.47Zm-16.23,3.6q-5.88-10.12-14.43-11.13t-22.62,7l-1.14.67q-14.41,8.35-18.23,16.68t2.2,18.66q5.18,8.93,14.92,9.43t23.08-7.25Q1399.2,439.49,1388.51,421.07Z"/><path class="cls-1" d="M1429.43,465.77l7.78,19.64-41.27,36.32a98.32,98.32,0,0,1-17.27,12.87l.24.61a87.27,87.27,0,0,1,11.25-1.52q6.75-.54,64.91-3.16l7.72,19.48-110.5,1.78q-30.39.59-39.54-22.51a55.87,55.87,0,0,1-3.31-12.18l14.27-5.65a45.8,45.8,0,0,0,2.75,9.65q5.18,13,22.38,12.35h9.22Z"/><path class="cls-1" d="M1410.51,665.41a47.08,47.08,0,0,0,4.87,13.51L1401,681.69a39.4,39.4,0,0,1-3.88-7.7,57.55,57.55,0,0,1-2.92-10.15q-5.22-27.08,23.31-32.56l48.29-9.31-2.36-12.23,8.43-1.63,9.5,11.78,20.21,2.83,2.26,11.75L1484,638.31l4.92,25.53-14.43,2.78-4.92-25.53-48,9.25c-4.6.88-7.76,2.68-9.51,5.4A12.76,12.76,0,0,0,1410.51,665.41Z"/><path class="cls-1" d="M1406.67,776.45,1405.52,757l56-3.31q10.54-.63,15.48-5.18t4.4-13.77q-.72-12.19-8.35-17.49T1448.29,713l-45.22,2.68-1.15-19.36,128.18-7.58,1.14,19.36L1498.71,710a151.33,151.33,0,0,1-16.78,0l.07,1.24a26.85,26.85,0,0,1,10.86,10.39,35.43,35.43,0,0,1,4.6,16.22q2,33.12-31.4,35.09Z"/><path class="cls-1" d="M1400.47,838.64q2-21.2,15.48-32t35.18-8.75q22.27,2.08,34,14.38T1495,844q-1.7,18-13.61,27.4t-31,7.6l-10.43-1,5.7-60.55q-13.27-.83-21,5.24T1415.67,841a69.85,69.85,0,0,0,.11,15.13,78.22,78.22,0,0,0,3.65,15.39l-15.7-1.48a59.69,59.69,0,0,1-3.42-14.74A89,89,0,0,1,1400.47,838.64Zm79.86,4q.87-9.2-4.44-15.29t-16.39-8.21l-3.88,41.24q11.28.88,17.56-3.82T1480.33,842.59Z"/><path class="cls-1" d="M1370.62,976.11q5.37-16.49,20.18-21.73l.35-1.1q-11.34-2.47-13.69-3.24l-35.55-11.57,6-18.44,125.4,40.81-4.86,14.91c-1.75-.11-5.91-.51-12.45-1.19l-.31.94q10.38,12.91,4.76,30.18-5.29,16.25-20,21.48t-36-1.69q-21.27-6.91-30.19-20T1370.62,976.11ZM1446.94,996q3.57-11-1.21-18.15t-18.92-11.75l-2.74-.89q-15.85-5.16-24.59-2.45T1387,976.85a17.53,17.53,0,0,0,3,17.31q6.17,7.73,20.68,12.45t23.76,2Q1443.7,1006,1446.94,996Z"/><path class="cls-1" d="M1357.37,1120.71q-19.9-10.2-25.84-26.12t3.4-34.15a43.78,43.78,0,0,1,15.45-17.49,38.07,38.07,0,0,1,21.64-5.87q12,.23,24.74,6.73,19.76,10.13,25.66,25.94t-3.55,34.25q-9,17.63-25.64,22.09T1357.37,1120.71Zm30.29-59.12q-28.14-14.41-38.78,6.37-10.53,20.57,17.6,35,27.82,14.27,38.44-6.45,5.57-10.87.87-19.44T1387.66,1061.59Z"/><path class="cls-1" d="M1262.64,1174.29l40.95,16.62q6.66,2.41,29.64,13l.45-.58q-14.73-17.38-20.41-25.3l-26.22-35.48,13.09-17,87.93,35.39-12.08,15.7-42.74-18.21q-15.63-7-26-13l-.3.39q4.27,4.34,9.42,10.43t7.47,9.44l29.6,40.28-13,16.87-46.27-18.63q-4-1.48-11.69-5.1a94.16,94.16,0,0,1-11.6-6.17l-.41.53a251.74,251.74,0,0,1,19,21.89l28.44,36.78L1306,1267.62l-56.62-76.07Z"/><path class="cls-1" d="M1193.62,1243.54q15.75-14.31,33-13.2t31.89,17.24q15,16.55,15.4,33.51t-14.06,30.05q-13.36,12.15-28.51,11.08t-28.07-15.3l-7-7.76,45-40.9q-9.24-9.55-19-10.29t-18.91,7.54a70.27,70.27,0,0,0-10.12,11.26,78.79,78.79,0,0,0-7.67,13.83l-10.6-11.67a59.21,59.21,0,0,1,7.41-13.2A88.22,88.22,0,0,1,1193.62,1243.54Zm56.34,56.73q6.84-6.21,7-14.3t-6.58-17.11l-30.65,27.86q7.73,8.27,15.54,9T1250,1300.27Z"/><path class="cls-1" d="M1168.59,1381.89a46.36,46.36,0,0,1-8.39,4.84l-8.78-15.9a36.9,36.9,0,0,0,7.6-4.1q9.54-6.66,11.12-17t-5.37-20.3l-27.29-39.12,15.9-11.09,52.23,74.84-12.45,8.69L1181.85,1351l-.81.56a36.05,36.05,0,0,1-2.3,17.4A28.14,28.14,0,0,1,1168.59,1381.89Z"/><path class="cls-1" d="M1003.53,1412.72q-8.89-20.52-3.36-36.59t24.31-24.21a43.75,43.75,0,0,1,23-3.7,38.15,38.15,0,0,1,20.45,9.21q9.15,7.82,14.83,20.91,8.84,20.37,3.34,36.33t-24.49,24.21q-18.17,7.88-33.84.78T1003.53,1412.72Zm61-26.43q-12.59-29-34-19.7-21.19,9.2-8.63,38.19,12.45,28.68,33.8,19.43,11.2-4.86,13-14.46T1064.48,1386.29Z"/><path class="cls-1" d="M944.6,1461.85l21.39-6.24-21.44-73.51,18.7-5.46,21.44,73.52,14.41-4.2,2.55,8.71-12.76,9.91,1.67,5.7q4.52,15.53-.58,25.14t-20.08,14a62.09,62.09,0,0,1-20.28,2.39l.8-15.54a44.87,44.87,0,0,0,13.8-1.61q6.35-1.85,8.09-6.62t-.54-12.6l-1.67-5.71L948.71,1476Z"/><path class="cls-1" d="M849.77,1401l19.21-2.6,12.24,90.44L862,1491.4Zm35.84,111.65c.47,3.43-.12,6.21-1.75,8.31s-4.19,3.4-7.68,3.87-6.13-.11-8.26-1.71-3.43-4.11-3.9-7.55a10.54,10.54,0,0,1,1.78-8.11c1.62-2.13,4.13-3.43,7.51-3.89s6.3.11,8.43,1.73A10.53,10.53,0,0,1,885.61,1512.6Z"/><path class="cls-1" d="M745.14,1406l19.47-.35,1,56.1q.2,10.56,4.54,15.68t13.58,5q12.3-.23,17.86-7.59t5.24-24.44l-.83-45.46,19.39-.35,1.67,91.25-15.18.28L809,1484.17l-1,0a27,27,0,0,1-11.53,10.28,39.37,39.37,0,0,1-16.77,3.86q-32.83.59-33.45-32.82Z"/><path class="cls-1" d="M686.72,1413.75a47.07,47.07,0,0,0-14.36.63l1.63-14.51a38.94,38.94,0,0,1,8.5-1.42,57.68,57.68,0,0,1,10.56.23q27.39,3.08,24.16,31.93l-5.47,48.88,12.38,1.39-1,8.53L709.09,1495l-8.71,18.45-11.89-1.33,2.26-20.17L664.92,1489l1.63-14.6,25.83,2.89,5.44-48.55q.78-7-2.33-10.68A12.8,12.8,0,0,0,686.72,1413.75Z"/><path class="cls-1" d="M621.28,1385.15q20.7,5,29.48,19.85t3.68,36.07q-5.22,21.73-19.05,31.57t-32.75,5.29q-17.58-4.23-25.2-17.35t-3.13-31.81l2.45-10.19,59.13,14.21q2.7-13-2.21-21.54t-16.87-11.39a70.55,70.55,0,0,0-15-2,79.7,79.7,0,0,0-15.75,1.44l3.68-15.33a59.5,59.5,0,0,1,15.08-1.29A87.12,87.12,0,0,1,621.28,1385.15Zm-15.21,78.49q9,2.16,15.77-2.23t10.45-15.06L592,1436.67q-2.47,11,1.3,17.92T606.07,1463.64Z"/><path class="cls-1" d="M550.53,1364.83l18.24,6.58L525.22,1492.2,507,1485.62Z"/><path class="cls-1" d="M509,1347.41l17.72,7.87-52.1,117.35-17.72-7.86Z"/><path class="cls-1" d="M432.7,1438.59q-2.44,4.59-6.28,5.73t-8.49-1.35q-4.51-2.4-5.71-6.22t1.25-8.4a10.52,10.52,0,0,1,6.18-5.54q3.86-1.18,8.37,1.23c3.1,1.65,5.05,3.77,5.83,6.33A10.55,10.55,0,0,1,432.7,1438.59ZM468.84,1327l17.12,9.12-42.91,80.55-17.12-9.12Z"/><path class="cls-1" d="M332.07,1347.61l6-8.81,14.52,6.37a25.3,25.3,0,0,1,1.05-7.86,27.89,27.89,0,0,1,3.85-8.16q7.92-11.69,20.52-12.9t26.73,8.37a43.35,43.35,0,0,1,6.19,5q7.36.32,10.28-4a5,5,0,0,0,.22-5.53q-1.55-2.94-8-7.35l-13.18-8.94q-12.49-8.49-15.36-18.21t3.94-19.77q8.7-12.83,24-12.61T448.11,1267q15.43,10.49,19.85,21.45t-2.44,21.09a20,20,0,0,1-12.35,8.72q-7.62,1.76-16.8-1.78a14.57,14.57,0,0,1,2.31,8,13.48,13.48,0,0,1-2.25,7.79,13.35,13.35,0,0,1-7.26,5.55,33.22,33.22,0,0,1-11,1,25.42,25.42,0,0,1,3.94,14.7,29.24,29.24,0,0,1-5.41,15.83q-8.34,12.29-20.68,13.78t-26.67-8.23a65,65,0,0,1-6.43-5,51.13,51.13,0,0,1-4.66-4.51Zm69,11.15q4.81-7.11,3.76-13.41T397,1334.42q-13.92-9.45-24,5.43-5,7.37-4.27,13.71t7.77,11.11q7,4.72,13.24,3.19T401.1,1358.76Zm49.53-58.14a10.66,10.66,0,0,0,.74-11.16q-2.78-6-11.24-11.72-13.11-8.9-22.08-9.5t-13.18,5.61q-3.35,4.92-1.23,9.39t11.66,11l12.15,8.24q6.9,4.69,13.16,4.2A12.85,12.85,0,0,0,450.63,1300.62Z"/><path class="cls-1" d="M345.33,1235.49q15.71,14.35,16.19,31.63t-14.21,33.35q-15.09,16.5-31.95,18.42t-31.22-11.21q-13.33-12.2-13.67-27.37T283.11,1251l7.07-7.73,44.89,41q8.67-10.08,8.48-19.92t-9.25-18.13a70.42,70.42,0,0,0-12.15-9,78.14,78.14,0,0,0-14.47-6.36l10.63-11.64a59.51,59.51,0,0,1,13.83,6.16A88.28,88.28,0,0,1,345.33,1235.49Zm-51.28,61.35q6.82,6.24,14.88,5.67t16.43-8.13l-30.57-28q-7.52,8.46-7.54,16.31T294.05,1296.84Z"/><path class="cls-1" d="M255.72,1137.2l12.19,15.19-43.77,35.12q-8.23,6.62-9.63,13.18t4.39,13.77q7.69,9.6,16.92,9.49t22.55-10.79l35.46-28.46L306,1199.83l-71.18,57.11-9.51-11.84,7.63-9.61-.62-.77a27.08,27.08,0,0,1-15.18-2.84A39.46,39.46,0,0,1,203.8,1221q-20.55-25.62,5.52-46.53Z"/><path class="cls-1" d="M226.21,1085.29q10.5,17.85,5.54,33.26t-24.44,26.88q-19.84,11.67-36.22,8.25t-27.18-21.78a61,61,0,0,1-8.56-25.12l16.41-2.86q2.12,13,6.17,19.92,12,20.42,39.11,4.46,13.23-7.79,16.89-16.78t-2.12-18.81a49.58,49.58,0,0,0-18-17.86l14.58-8.58a38.21,38.21,0,0,1,9.4,7.35A66.72,66.72,0,0,1,226.21,1085.29Z"/><path class="cls-1" d="M190.21,1011.09q8.17,19.67,1.33,35.51t-27,24.23q-20.64,8.6-36.73,3.23t-23.57-23.35q-6.94-16.7-.84-30.58t23.85-21.28l9.68-4L160.33,1051q12.1-5.49,16.1-14.48t-.74-20.34a69.89,69.89,0,0,0-7.2-13.31A77.5,77.5,0,0,0,158.05,991l14.56-6.06a59.37,59.37,0,0,1,9.93,11.42A87.59,87.59,0,0,1,190.21,1011.09Zm-72.38,34q3.54,8.54,11.1,11.43t18.32-.44l-15.92-38.24q-10.37,4.5-13.71,11.61T117.83,1045.06Z"/><path class="cls-1" d="M147.67,946.24q15.84-.53,42,2.79l4,13.7a405.82,405.82,0,0,0-42.14,3.52L146.2,948Z"/><path class="cls-1" d="M147.61,842q2.5,20.56-8.2,32.71t-33.14,14.88q-22.86,2.78-36.5-6.91T53.55,851.82a61,61,0,0,1,2.18-26.45l16.19,3.93q-3.26,12.78-2.3,20.73,2.86,23.51,34.07,19.71,15.24-1.85,22.19-8.64T131.45,843a49.59,49.59,0,0,0-9.35-23.55l16.79-2.05a38.24,38.24,0,0,1,5.68,10.49A66.15,66.15,0,0,1,147.61,842Z"/><path class="cls-1" d="M49.1,754a47.45,47.45,0,0,1,.67-9.66l18.1,1.6a37.41,37.41,0,0,0-.85,8.6q.2,11.63,7.9,18.73t19.84,6.9l47.69-.78.31,19.39-91.25,1.48-.25-15.18,16.05-2.82,0-1a36.2,36.2,0,0,1-13.15-11.63A28.27,28.27,0,0,1,49.1,754Z"/><path class="cls-1" d="M149.53,690.24q-2.64,21.13-16.44,31.51t-35.43,7.69Q75.48,726.67,64.15,714t-8.91-32q2.23-17.94,14.42-27t31.27-6.67l10.4,1.3-7.52,60.35q13.25,1.23,21.16-4.6t9.44-18a70.52,70.52,0,0,0,.34-15.14,78.38,78.38,0,0,0-3.18-15.49l15.64,1.95a59.75,59.75,0,0,1,3,14.84A88.61,88.61,0,0,1,149.53,690.24Zm-79.71-6.35q-1.14,9.17,4,15.42T89.93,708l5.12-41.11q-11.23-1.23-17.66,3.29T69.82,683.89Z"/><path class="cls-1" d="M171.55,582.39l-13.29.31-.18.64q6.25,8.6,7.36,15.85t-1.72,17.34q-3.63,13-12.65,18.27t-21.82,1.74q-13.59-3.79-17.69-15.82t1-32.87l3.77-15.31-4.69-1.31q-8.43-2.36-13.7.41t-7.58,11a43.78,43.78,0,0,0-1.63,13.51,102.2,102.2,0,0,0,1.35,13.23l-15,2.31a67.63,67.63,0,0,1-1.3-17.24,74.26,74.26,0,0,1,2.54-16.6Q81,561.11,90.71,554.61t25.36-2.12L175.28,569Zm-20.49,24.26q2.83-10.17-1.12-17.92t-14.22-10.61L128.1,576l-2.68,11.42q-3.21,13.33-1,20.43t10.37,9.36q5.88,1.65,10.07-1T151.06,606.65Z"/><path class="cls-1" d="M184.22,510.42a46.89,46.89,0,0,0,3.45-13.95l13.46,5.66a38.33,38.33,0,0,1-1,8.55,57.58,57.58,0,0,1-3.2,10.07q-10.68,25.41-37.46,14.15l-45.34-19.06-4.83,11.49L101.35,524,100,508.93,84.75,495.36l4.63-11,18.72,7.87,10.07-24,13.54,5.69-10.07,24,45,18.93c4.31,1.81,8,2.08,10.91.78A12.75,12.75,0,0,0,184.22,510.42Z"/><path class="cls-1" d="M107.42,436.16q-4.61-2.43-5.76-6.25t1.3-8.5q2.39-4.53,6.19-5.74t8.41,1.21a10.55,10.55,0,0,1,5.58,6.15c.79,2.56.4,5.35-1.19,8.37s-3.74,5.07-6.31,5.87A10.53,10.53,0,0,1,107.42,436.16Zm111.73,35.56-9,17.16-80.78-42.49,9-17.16Z"/><path class="cls-1" d="M242.36,432.61,147.2,410.78l11.36-17,54.44,14q13.78,3.45,21.19,7.2l.37-.55Q230,410.5,219.78,397.6L186,352.71l11.45-17.16L254,415.17Z"/><path class="cls-1" d="M307.78,350.24q-14.2,15.86-31.46,16.53t-33.5-13.87Q226.17,338,224.06,321.16T235,289.81q12-13.46,27.22-13.95t29.49,12.33l7.81,7L258.91,340.5q10.17,8.55,20,8.27t18-9.44a70.72,70.72,0,0,0,8.9-12.24,79.43,79.43,0,0,0,6.21-14.55l11.74,10.51a59,59,0,0,1-6,13.89A88.22,88.22,0,0,1,307.78,350.24Zm-61.89-50.63q-6.16,6.88-5.51,14.94t8.3,16.35L276.3,300q-8.54-7.41-16.39-7.36T245.89,299.61Z"/><path class="cls-1" d="M304.25,192.93c-2.14-2.73-3-5.41-2.7-8.06s1.89-5.05,4.66-7.22,5.35-3,8-2.72,5,1.81,7.19,4.54a10.51,10.51,0,0,1,2.57,7.89q-.48,4-4.5,7.16c-2.77,2.17-5.48,3.1-8.15,2.78A10.57,10.57,0,0,1,304.25,192.93ZM391.73,271l-15.25,12L320.1,211.23l15.25-12Z"/><path class="cls-1" d="M437.91,241q-14.55,8.94-29.19,3.4t-26.34-24.6q-11.75-19.12-10-34.85t16.34-24.71q15.33-9.42,30.3-3l.85-.51a116.48,116.48,0,0,1-9.32-12.49l-17.4-28.34,16.59-10.19,67.2,109.41L464,223l-9.14-8.43-.78.48Q453.24,231.57,437.91,241Zm-3.77-16.08q10.19-6.27,11.31-14.85t-6.64-21.53l-1.42-2.32q-9-14.7-17.61-17.95t-18.78,3q-8.72,5.36-9.09,15.32t7.66,23q7.95,12.94,16.69,16.92T434.14,224.9Z"/><path class="cls-1" d="M535.27,190.79q-19.63,8.22-35.51,1.41t-24.29-26.9q-8.64-20.62-3.31-36.73t23.29-23.63Q512.12,98,526,104t21.34,23.8l4,9.67L495.32,161q5.52,12.1,14.52,16.07t20.34-.79a70.16,70.16,0,0,0,13.3-7.23,78.64,78.64,0,0,0,11.85-10.47l6.09,14.54a59.39,59.39,0,0,1-11.39,10A87.43,87.43,0,0,1,535.27,190.79Zm-34.14-72.3q-8.53,3.57-11.4,11.13t.48,18.32l38.2-16q-4.51-10.37-11.64-13.69T501.13,118.49Z"/><path class="cls-1" d="M639.74,156.27l-6.87-11.36-.64.16q-4.37,9.7-10.1,14.26t-15.9,7.13q-13,3.3-22.14-1.89T571.73,146.5q-3.47-13.67,4.93-23.21t29-15.43l15.16-4.35-1.2-4.72q-2.14-8.48-7.17-11.68T599.15,86a44,44,0,0,0-12.53,5.3,103,103,0,0,0-10.81,7.76l-9.48-11.9a67.77,67.77,0,0,1,14.31-9.71,74.8,74.8,0,0,1,15.67-6q16.88-4.28,27.34.91T638.1,93.27l15.08,59.6Zm-31.23-5.71q10.23-2.59,15-9.88t2.14-17.61l-1.95-7.68-11.23,3.36q-13.17,3.84-18.2,9.33t-3,13.64q1.5,5.92,5.84,8.27T608.51,150.56Z"/><path class="cls-1" d="M734.16,116.7q1.47,13.29-7.41,21.46t-26.93,10.18q-18.12,2-29.73-2.25l-1.85-16.65q16.82,5.59,30.59,4.06,17.8-2,16.6-12.72a8.48,8.48,0,0,0-2.61-5.52,23.45,23.45,0,0,0-7-4A113,113,0,0,0,692.65,107q-16.35-4.32-22.56-9.78t-7.28-15.12q-1.3-11.65,7.37-19.14T695,53.72a72.8,72.8,0,0,1,31,3.11L721.38,72Q706,67.62,696,68.72q-15.25,1.69-14.29,10.39c.32,2.85,1.91,5.1,4.78,6.78s9,3.73,18.25,6.19q11.73,3.09,17.21,6.13a23.93,23.93,0,0,1,8.47,7.49A24.28,24.28,0,0,1,734.16,116.7Z"/><path class="cls-1" d="M775.12,124.54Q771.4,140,761.24,164.3l-14.28.23A403.81,403.81,0,0,0,754.79,123l19.06-.31Z"/><circle class="cls-2" cx="773.89" cy="773.89" r="773.89"/></g></g></svg>