<svg xmlns="http://www.w3.org/2000/svg" viewBox="0 0 1085.81 1085.81"><defs><style>.cls-1{fill:#fff;}.cls-2{fill:none;}</style></defs><g id="Layer_2" data-name="Layer 2"><g id="Layer_1-2" data-name="Layer 1"><path class="cls-1" d="M629.31,95.41q-1.21,8.61-8.15,12.33t-18.62,2.05q-11.76-1.68-18.38-6.25l1.53-10.79q9.69,6.25,18.63,7.52,11.53,1.65,12.53-5.33a5.57,5.57,0,0,0-.75-3.9,15.34,15.34,0,0,0-3.77-3.68,72.32,72.32,0,0,0-7.62-4.77q-9.6-5.37-12.63-9.82a14.73,14.73,0,0,1-2.14-10.72,13.55,13.55,0,0,1,7.75-10.86q6.69-3.31,17.16-1.83a47.4,47.4,0,0,1,19,7l-5.38,8.84q-9-5.3-15.45-6.21-9.88-1.4-10.69,4.24a5.74,5.74,0,0,0,1.91,5q2.31,2.28,10.51,6.86a52.22,52.22,0,0,1,9.85,6.66,15.55,15.55,0,0,1,4.12,6.09A15.74,15.74,0,0,1,629.31,95.41Z"/><path class="cls-1" d="M662,111.47a30.62,30.62,0,0,0,9.31.85L669,121.54a25.43,25.43,0,0,1-5.61.16,37.84,37.84,0,0,1-6.79-1.07q-17.4-4.39-12.77-22.72l7.83-31-7.86-2,1.37-5.41,9.56-2.35L661.94,46l7.55,1.91L666.25,60.7l16.41,4.14-2.34,9.27L663.91,70l-7.78,30.83c-.74,3-.56,5.31.57,7.09A8.32,8.32,0,0,0,662,111.47Z"/><path class="cls-1" d="M712.72,138.55l.6-8.63-.4-.15q-6,3.53-10.72,3.81a27.51,27.51,0,0,1-11.13-2.16q-8.18-3.13-11.08-9.3t.18-14.25q3.29-8.57,11.33-10.5T712.73,100l9.7,3.36,1.13-3q2-5.33.56-8.9T717.43,86a28.43,28.43,0,0,0-8.66-1.87,64,64,0,0,0-8.66.08l-.59-9.89a44.43,44.43,0,0,1,11.26.19,49.07,49.07,0,0,1,10.6,2.65q10.59,4,14.21,10.73t-.15,16.56l-14.29,37.37Zm-14.49-14.74q6.42,2.46,11.69.35t7.73-8.57l1.84-4.81-7.24-2.43q-8.44-2.88-13.18-1.85t-6.69,6.16a7.88,7.88,0,0,0,0,6.58Q693.82,122.12,698.23,123.81Z"/><path class="cls-1" d="M777.47,172.63,766.67,166l19.17-31.21c2.38-3.87,3.42-7.22,3.13-10s-2-5.17-5.11-7.08q-6.23-3.83-11.62-1.56t-11.18,11.7L745.57,153l-10.75-6.6,31.09-50.62,8.42,5.17-2.57,7.57.55.33a16.42,16.42,0,0,1,9.54-1.83,23.21,23.21,0,0,1,10,3.44q11.67,7.17,10.58,17.47l.73.45a18.16,18.16,0,0,1,9.91-2,23.65,23.65,0,0,1,10.63,3.63q9.06,5.56,10.4,12.69t-4.44,16.5l-20.26,33-10.76-6.61,19.17-31.21q3.57-5.82,3.11-10t-5.13-7.09q-6.27-3.86-11.58-1.72t-10.29,10.23Z"/><path class="cls-1" d="M829.55,211.37l-9.67-8.13,38.23-45.47,9.66,8.12Zm38.11-66.13a6.94,6.94,0,0,1,4.77-2.79,7.2,7.2,0,0,1,5.22,2,7.12,7.12,0,0,1,2.8,4.74,7,7,0,0,1-1.94,5.18,6.86,6.86,0,0,1-4.68,2.69,7,7,0,0,1-5.16-1.92,7.12,7.12,0,0,1-2.86-4.82A6.89,6.89,0,0,1,867.66,145.24Z"/><path class="cls-1" d="M878.05,259.33l-8.76-9.16,26.41-25.23q5-4.75,5.51-9.09t-3.62-8.69q-5.52-5.78-11.5-5.2t-14,8.27l-21.4,20.44L842,221.54l43-41,6.82,7.15-4.4,6.66.44.46a17.57,17.57,0,0,1,10,1A25.58,25.58,0,0,1,907,202.1q14.76,15.47-1,30.48Z"/><path class="cls-1" d="M908.84,301.3l5.28-6.85-.25-.35q-6.9-.36-11-2.78a27.4,27.4,0,0,1-8.07-8q-5.06-7.14-4-13.88t8.07-11.75q7.49-5.31,15.24-2.45t16.19,14l6.2,8.18,2.59-1.83q4.63-3.3,5.4-7.09T942,260.16a28.43,28.43,0,0,0-6.16-6.36,66.24,66.24,0,0,0-7.25-4.74l5-8.55a43.83,43.83,0,0,1,9.26,6.41,48.72,48.72,0,0,1,7.35,8.08q6.55,9.25,5.86,16.82t-9.32,13.69l-32.63,23.15ZM905,281q4,5.61,9.52,6.78t11.19-2.83l4.2-3-4.67-6q-5.43-7.08-9.94-8.85t-9,1.4a7.93,7.93,0,0,0-3.65,5.48C902.37,276.08,903.15,278.42,905,281Z"/><path class="cls-1" d="M983.4,381.91q-13.33,5.82-23.81,2.23T943.8,368.35a28.63,28.63,0,0,1-2.43-15,24.83,24.83,0,0,1,6-13.32,36.69,36.69,0,0,1,13.59-9.67q13.24-5.78,23.64-2.22t15.78,15.92q5.16,11.82.55,22T983.4,381.91Zm-17.27-39.64q-18.86,8.22-12.79,22.15T978.21,370q18.66-8.13,12.61-22c-2.11-4.86-5.26-7.68-9.42-8.46S972.14,339.66,966.13,342.27Z"/><path class="cls-1" d="M1015.7,419.9,1011.52,406l-47.73,14.39-3.66-12.14,47.73-14.39-2.82-9.36,5.65-1.7,6.53,8.24,3.7-1.11q10.08-3,16.36.22t9.22,13a40.16,40.16,0,0,1,1.67,13.18l-10.11-.43a29.33,29.33,0,0,0-1.13-9q-1.25-4.11-4.36-5.22t-8.2.42l-3.7,1.12,4.19,13.88Z"/><path class="cls-1" d="M987.26,490A31,31,0,0,0,990,499l-9.41,1.32a25.33,25.33,0,0,1-2.26-5.14,36,36,0,0,1-1.56-6.7q-2.47-17.76,16.24-20.38l31.71-4.42-1.12-8,5.53-.77,5.78,8,13,2.52,1.08,7.71-13.09,1.83,2.34,16.75-9.47,1.32-2.34-16.75L995,480.59q-4.53.63-6.36,3.19A8.32,8.32,0,0,0,987.26,490Z"/><path class="cls-1" d="M981.32,551.79l7.76-1.9v-.65a18,18,0,0,1-6.62-7.38,25.22,25.22,0,0,1-2.54-11.05q-.18-10.8,5.11-16.2t16.19-5.58l38.82-.63.21,12.72-36.63.6q-6.81.1-10.18,3t-3.27,8.81q.14,7.93,4.94,11.6t16,3.47l29.59-.48.2,12.68-59.39,1Z"/><path class="cls-1" d="M1036.8,614a30.2,30.2,0,0,1-1.23,6.19L1024,617.7a23.4,23.4,0,0,0,1.26-5.48,16.16,16.16,0,0,0-3.55-12.75q-4.38-5.22-12.23-6.09l-30.86-3.44L980,577.4l59,6.58-1.1,9.82-10.59.49-.07.64a23.67,23.67,0,0,1,7.53,8.6A18.37,18.37,0,0,1,1036.8,614Z"/><path class="cls-1" d="M962.35,672.92l3-12.31,35.48,8.67q6.67,1.63,10.62-.25t5.37-7.73q1.9-7.77-1.81-12.5t-14.51-7.36l-28.75-7,3-12.26,57.7,14.11-2.34,9.6-8-.13-.15.63a17.53,17.53,0,0,1,4.55,9,25.49,25.49,0,0,1-.36,11.19q-5.07,20.78-26.2,15.6Z"/><path class="cls-1" d="M952.44,699.29l4.34-11.86,55.79,20.4-4.33,11.85Zm75.17,13.24a7,7,0,0,1,4.26,3.52,7.22,7.22,0,0,1-.11,5.6,6.39,6.39,0,0,1-9,4.19,6.85,6.85,0,0,1-4.13-3.48,7,7,0,0,1,0-5.5,7.16,7.16,0,0,1,3.56-4.34A6.87,6.87,0,0,1,1027.61,712.53Z"/><path class="cls-1" d="M923.88,761.21l5.64-11.36,32.71,16.25q6.15,3.06,10.42,2.09t6.93-6.36q3.57-7.17,1-12.59T968,738.87l-26.51-13.16,5.62-11.31,53.2,26.43-4.4,8.85-7.76-1.88-.29.58a17.59,17.59,0,0,1,2.48,9.74A25.58,25.58,0,0,1,987.55,769q-9.51,19.14-29,9.46Z"/><path class="cls-1" d="M936.35,849l-5.7-3.94,4.22-9.42a16.05,16.05,0,0,1-5.11-.72,18.35,18.35,0,0,1-5.3-2.55q-7.55-5.22-8.28-13.42t5.59-17.36a28.9,28.9,0,0,1,3.28-4c.16-3.19-.68-5.43-2.54-6.71a3.26,3.26,0,0,0-3.6-.17c-1.28.66-2.89,2.38-4.83,5.18l-5.89,8.53q-5.58,8.1-11.93,9.91t-12.84-2.67a17.58,17.58,0,0,1-8.09-15.7q.23-10,9.17-22.92,6.9-10,14.07-12.8a13.87,13.87,0,0,1,13.7,1.7,13,13,0,0,1,5.61,8.09,18.48,18.48,0,0,1-1.24,10.92,9.45,9.45,0,0,1,5.22-1.46,8.76,8.76,0,0,1,5.06,1.51,8.58,8.58,0,0,1,3.57,4.75,21.47,21.47,0,0,1,.58,7.19,16.59,16.59,0,0,1,9.59-2.49A19.09,19.09,0,0,1,950.93,794q8,5.49,8.86,13.53t-5.49,17.32A42.77,42.77,0,0,1,951,829a34.66,34.66,0,0,1-3,3Zm-30-77.41a6.94,6.94,0,0,0-7.26-.55c-2.6,1.19-5.16,3.6-7.69,7.26q-5.85,8.49-6.29,14.32c-.3,3.88.9,6.76,3.58,8.61,2.12,1.46,4.15,1.75,6.1.85s4.34-3.41,7.19-7.53l5.44-7.87c2-3,3-5.82,2.8-8.54A8.37,8.37,0,0,0,906.39,771.54ZM944,804.08q-4.61-3.17-8.7-2.52t-7.17,5.08q-6.23,9,3.41,15.67,4.77,3.3,8.9,2.85t7.27-5q3.12-4.5,2.16-8.6T944,804.08Z"/><path class="cls-1" d="M883.78,907q-8,7.68-18.09,6.14T845.58,901q-10.1-10.56-11.17-20.78t7-18q8.16-7.78,18.26-6.23l.63-.6-3.2-6.68,6.83-6.53,57.76,60.41-9.13,8.72L898.82,897q-1.52-1.59-4.37-4.89t-3.59-4.22l-.39.37Q892.24,898.85,883.78,907ZM879,897.23q5.52-5.28,4.84-10.83T876,873.15l-.59-.62q-7.5-7.85-13.34-9t-11.47,4.24a11.38,11.38,0,0,0-3.69,10.88q1.17,6.24,8.11,13.5Q869,906.8,879,897.23Z"/><path class="cls-1" d="M804.58,894.5l10-7.69,36.19,47.12-10,7.69ZM861,946a7,7,0,0,1,1.7,5.26,7.19,7.19,0,0,1-3.08,4.67,7.09,7.09,0,0,1-5.22,1.71,7,7,0,0,1-4.65-3,6.86,6.86,0,0,1-1.62-5.16,7,7,0,0,1,3-4.62,7.2,7.2,0,0,1,5.33-1.76A6.89,6.89,0,0,1,861,946Z"/><path class="cls-1" d="M780.35,981.25l-3.65-5.89,7.64-6.94a16.45,16.45,0,0,1-4.4-2.71,18.16,18.16,0,0,1-3.83-4.45q-4.85-7.82-2.22-15.62T786,932a28.74,28.74,0,0,1,4.61-2.35q2.15-4.29.36-7.17a3.27,3.27,0,0,0-3.23-1.6c-1.44.09-3.6,1-6.5,2.82l-8.81,5.46q-8.36,5.18-14.9,4.31t-10.7-7.59a17.58,17.58,0,0,1-1.13-17.63q4.2-9,17.57-17.33,10.32-6.39,18-6.1a13.89,13.89,0,0,1,11.88,7,13.08,13.08,0,0,1,1.91,9.66,18.58,18.58,0,0,1-5.52,9.51,9.48,9.48,0,0,1,5.37.75,8.79,8.79,0,0,1,4,3.41,8.64,8.64,0,0,1,1.37,5.78,21.8,21.8,0,0,1-2.35,6.82,16.61,16.61,0,0,1,9.78,1.56,19,19,0,0,1,8,7.41q5.1,8.22,2.71,15.95t-12,13.67a41.09,41.09,0,0,1-4.68,2.49,32.35,32.35,0,0,1-3.92,1.58Zm3.52-82.93a7,7,0,0,0-6.44-3.41q-4.27.08-9.94,3.58-8.78,5.43-11.51,10.6t-.16,9.32c1.36,2.2,3.11,3.27,5.25,3.23s5.35-1.39,9.61-4l8.12-5q4.62-2.87,6-6.71A8.34,8.34,0,0,0,783.87,898.32Zm21.41,44.86q-2.94-4.74-7-5.79t-8.6,1.79q-9.32,5.76-3.14,15.72,3,4.94,7,6.17t8.66-1.67q4.66-2.88,5.42-7T805.28,943.18Z"/><path class="cls-1" d="M698.79,962.45a30.63,30.63,0,0,0-8.06,4.75l-3.5-8.84a25.8,25.8,0,0,1,4.45-3.41,38,38,0,0,1,6.14-3.1q16.68-6.6,23.65,11l11.79,29.76,7.54-3,2.06,5.19-6.39,7.5.64,13.27-7.24,2.87L725,1006.14l-15.73,6.23-3.52-8.89,15.73-6.23-11.72-29.56q-1.68-4.25-4.6-5.42A8.31,8.31,0,0,0,698.79,962.45Z"/><path class="cls-1" d="M627.26,973.82l12.27-3.17,9.13,35.37c1.15,4.43,2.89,7.52,5.24,9.24s5.47,2.08,9.35,1.08q7.69-2,10.12-7.52T673,992.46l-7.38-28.55,12.23-3.15,20.89,80.92-12.22,3.15-5.3-20.54a98.82,98.82,0,0,1-2.11-10.72l-.78.2a17.49,17.49,0,0,1-5.27,8.25,23.14,23.14,0,0,1-9.79,5q-20.91,5.4-26.34-15.66Z"/><path class="cls-1" d="M599.35,977.57l12.49-1.79,8.43,58.8-12.5,1.79Zm23.89,72.48a7,7,0,0,1-1.09,5.42,7.24,7.24,0,0,1-5,2.56,7.08,7.08,0,0,1-5.39-1.07,7,7,0,0,1-2.57-4.9,6.84,6.84,0,0,1,1.11-5.29,7,7,0,0,1,4.87-2.56,7.13,7.13,0,0,1,5.5,1.08A6.82,6.82,0,0,1,623.24,1050.05Z"/><path class="cls-1" d="M531.24,981.75l12.67-.42,1.21,36.5q.23,6.87,3.1,10.17t8.89,3.09q8-.27,11.54-5.11t3.19-16l-1-29.58,12.62-.41,1.95,59.37-9.87.32-2-7.72-.65,0a17.52,17.52,0,0,1-7.4,6.8,25.54,25.54,0,0,1-10.88,2.67q-21.36.71-22.08-21Z"/><path class="cls-1" d="M500.76,1010.73l-8.09,8.08-19.93,17-14.47-1.6,26.57-22.72L463.32,975l14.74,1.64,16.08,28,7.51-4.9,2.24-20.23,12.44,1.38L507.12,1064l-12.44-1.38,4.49-40.52,1.91-11.3Z"/><path class="cls-1" d="M440.8,1046.14a7,7,0,0,1-2.91,4.7,7.25,7.25,0,0,1-5.56.67,6.4,6.4,0,0,1-5.39-8.36,6.87,6.87,0,0,1,2.89-4.57,7,7,0,0,1,5.46-.72,7.14,7.14,0,0,1,4.77,2.93A6.81,6.81,0,0,1,440.8,1046.14Zm2.82-76.27L456,972.54,443.4,1030.6l-12.34-2.67Z"/><path class="cls-1" d="M378.39,950.05l12,4-11.62,34.62q-2.17,6.52-.64,10.61t7.25,6q7.59,2.55,12.61-.75t8.55-13.85L416,962.67l12,4L409,1023l-9.37-3.15.8-7.94-.61-.21a17.58,17.58,0,0,1-9.32,3.79,25.52,25.52,0,0,1-11.12-1.3q-20.27-6.8-13.34-27.42Z"/><path class="cls-1" d="M293.17,974.36l3.12-6.19,9.91,2.91a16.6,16.6,0,0,1,0-5.17,18.56,18.56,0,0,1,1.81-5.59q4.14-8.19,12.17-10t17.95,3.17a28.12,28.12,0,0,1,4.41,2.71c3.19-.27,5.29-1.42,6.31-3.43a3.28,3.28,0,0,0-.32-3.59q-1.24-1.77-5.8-4.07l-9.25-4.68q-8.78-4.44-11.43-10.47t.89-13.09a17.59,17.59,0,0,1,14.46-10.15q9.9-1.12,23.95,6,10.83,5.48,14.6,12.19a13.89,13.89,0,0,1,.18,13.81,13.06,13.06,0,0,1-7.25,6.66,18.56,18.56,0,0,1-11,.25,9.45,9.45,0,0,1,2.15,5,9,9,0,0,1-5,9.41A21.51,21.51,0,0,1,348,961.5a16.59,16.59,0,0,1,3.77,9.16,19,19,0,0,1-2.17,10.67Q345.23,990,337.39,992t-17.91-3.09a42.46,42.46,0,0,1-4.56-2.7,34.5,34.5,0,0,1-3.39-2.52Zm45.49,1.44q2.52-5,1.31-9c-.8-2.66-2.81-4.79-6-6.4q-9.78-5-15.06,5.5c-1.75,3.45-2.28,6.52-1.62,9.21s2.65,4.86,5.94,6.52,6.2,2,8.82,1S336.86,979.35,338.66,975.8Zm27.13-41.65a6.93,6.93,0,0,0-.45-7.27q-2.29-3.61-8.23-6.63-9.21-4.65-15.05-4.29t-8,4.72c-1.16,2.3-1.17,4.36,0,6.16s4,3.84,8.44,6.1l8.53,4.32q4.84,2.44,8.84,1.61A8.38,8.38,0,0,0,365.79,934.15Z"/><path class="cls-1" d="M246,961.81a7,7,0,0,1-4.57,3.12,7.26,7.26,0,0,1-5.35-1.65,6.41,6.41,0,0,1-1.53-9.83,6.87,6.87,0,0,1,4.49-3,7,7,0,0,1,5.28,1.57,7.16,7.16,0,0,1,3.18,4.61A6.83,6.83,0,0,1,246,961.81Zm33.53-68.56,10.19,7.45-35,48-10.19-7.44Z"/><path class="cls-1" d="M227.91,848.69l9.35,8.55-24.63,27q-4.65,5.07-4.88,9.44t4.2,8.42q5.9,5.4,11.83,4.41t13.42-9.2l20-21.84,9.31,8.51-40.07,43.85-7.29-6.66,3.94-7-.47-.43a17.57,17.57,0,0,1-10.06-.31,25.54,25.54,0,0,1-9.64-5.69q-15.78-14.41-1.11-30.48Z"/><path class="cls-1" d="M196.56,826.22a30.81,30.81,0,0,0-7.11-6.08l7.23-6.18a25.91,25.91,0,0,1,4.67,3.11,37.76,37.76,0,0,1,4.92,4.81q11.65,13.64-2.71,25.92l-24.33,20.8,5.27,6.17-4.25,3.63-9.16-3.62-12.35,4.91-5.06-5.92,10-8.59-11-12.86,7.27-6.21L171,859l24.17-20.67c2.31-2,3.53-4,3.64-6.11A8.33,8.33,0,0,0,196.56,826.22Z"/><path class="cls-1" d="M137.39,778.41q12.12-8.05,23.05-6.37t18.31,12.79a28.48,28.48,0,0,1,5,14.33,24.91,24.91,0,0,1-3.54,14.17,36.92,36.92,0,0,1-11.69,11.9q-12,8-22.89,6.33t-18.33-12.91q-7.14-10.73-4.39-21.59T137.39,778.41Zm24,36q17.13-11.38,8.7-24t-25.45-1.13q-17,11.28-8.56,23.89,4.4,6.61,10.76,6.68T161.34,814.41Z"/><path class="cls-1" d="M134.26,698.57q4.13,10.48-1.13,19.26l.28.7q6.72-3.45,8.22-4l22.63-8.92,4.63,11.75L89,748.78l-3.74-9.5q1.38-1,6.74-4.56l-.23-.6q-10.56-2.19-14.9-13.18-4.08-10.35,1.15-19.07T96.82,687.8q13.55-5.32,23.45-2.45T134.26,698.57ZM87.71,720.2q2.76,7,8.12,8.61t14.37-1.94l1.74-.69q10.09-4,13.36-9t.41-12.22a11.41,11.41,0,0,0-8.7-7.43q-6.3-1.32-15.54,2.32T88.69,708.7Q85.21,713.86,87.71,720.2Z"/><path class="cls-1" d="M80.46,620.7q14.19-3.26,23.81,2.19t12.61,18.43a28.42,28.42,0,0,1-.37,15.19,24.81,24.81,0,0,1-8.32,12,36.76,36.76,0,0,1-15.14,7Q79,678.75,69.4,673.34T56.82,654.79Q53.94,642.23,60.34,633T80.46,620.7Zm9.68,42.14q20.06-4.61,16.64-19.42-3.36-14.65-23.41-10-19.85,4.56-16.45,19.32,1.78,7.75,7.71,10T90.14,662.84Z"/><path class="cls-1" d="M104.64,554.17l-27.26,9.17q-4.32,1.63-20.16,6.15l0,.48q14.64,2.32,20.81,3.82l28,6.39.75,14L48.39,614l-.7-12.87L76.51,592q10.69-3.16,18.36-4.65l0-.32q-3.94-.33-9.07-1.15t-7.69-1.5L46.39,577l-.75-13.84,30.74-10.43c1.72-.63,4.37-1.44,7.93-2.44a61.81,61.81,0,0,1,8.35-1.88l0-.43A165.41,165.41,0,0,1,74,545.23l-29.64-6.08-.69-12.66L103.88,540Z"/><path class="cls-1" d="M108.86,490.44q-1.55,13.77-10.44,20.63t-23,5.29Q61,514.74,53.49,506.61t-6.05-20.73q1.31-11.69,9.16-17.67t20.3-4.59l6.78.75-4.41,39.34q8.63.71,13.73-3.16t6-11.81a45.27,45.27,0,0,0,.1-9.85,51.32,51.32,0,0,0-2.19-10.06L107.1,470a39,39,0,0,1,2.06,9.64A57.72,57.72,0,0,1,108.86,490.44Zm-51.92-3.5a12.7,12.7,0,0,0,2.71,10q3.39,4,10.57,5.53l3-26.79Q65.9,475,61.75,478T56.94,486.94Z"/><path class="cls-1" d="M61.25,412.29a31.52,31.52,0,0,1,2-6l11.16,3.92a23.78,23.78,0,0,0-1.91,5.29,16.15,16.15,0,0,0,2,13.08q3.72,5.71,11.4,7.54l30.21,7.17-2.92,12.28L55.34,441.86l2.28-9.62,10.57.8.15-.62A23.65,23.65,0,0,1,61.92,423,18.35,18.35,0,0,1,61.25,412.29Z"/><path class="cls-1" d="M87.09,367.1l-4.7,13.72,47.17,16.12-4.1,12L78.29,392.81l-3.16,9.25-5.59-1.91-.5-10.5-3.66-1.25q-10-3.4-13.16-9.72t.08-15.93a40.24,40.24,0,0,1,6.32-11.69l8,6.25a29,29,0,0,0-4.31,7.95c-.92,2.71-.76,5,.5,6.78s3.55,3.29,6.91,4.43l3.66,1.26L78,364Z"/><path class="cls-1" d="M155.08,338.06l-7.78-1.8-.29.58a18,18,0,0,1,2.6,9.58,25.13,25.13,0,0,1-2.7,11q-4.69,9.72-11.85,12.17t-17-2.29l-35-16.9L88.67,339l33,15.94q6.13,3,10.43,1.94t6.88-6.4q3.45-7.15.8-12.59t-12.71-10.29L100.4,314.68l5.52-11.42,53.48,25.85Z"/><path class="cls-1" d="M174.78,305l-6.71,10.69L97.28,271.26l6.7-10.69Z"/><path class="cls-1" d="M224.47,241.51l-7.87-3.6-.28.32c.8,4.55.73,8.33-.22,11.37a27.29,27.29,0,0,1-5.94,9.66q-5.82,6.56-12.61,7.09t-13.27-5.2q-6.87-6.1-5.84-14.3t10-18.94L195,220l-2.37-2.11c-2.84-2.51-5.55-3.74-8.13-3.66s-5.11,1.51-7.58,4.3A28.27,28.27,0,0,0,172.1,226a66.28,66.28,0,0,0-3,8.13l-9.46-2.94a44.35,44.35,0,0,1,4.15-10.46,48.89,48.89,0,0,1,6.22-9q7.51-8.48,15.05-9.52t15.44,6l29.94,26.55Zm-18.91,8.36q4.56-5.15,4.45-10.8t-5.29-10.27l-3.86-3.42L196,231.3q-5.67,6.88-6.37,11.68t3.39,8.44a7.92,7.92,0,0,0,6.17,2.31C201.36,253.51,203.47,252.23,205.56,249.87Z"/><path class="cls-1" d="M260.28,209.35q-10.17,8.85-20.62,7.52t-20.12-12.43q-9.84-11.3-9.61-22.19t10.69-20a39.85,39.85,0,0,1,15-8.48l3.79,10.16q-8.07,2.91-12,6.33-11.62,10.13,1.82,25.56,6.55,7.53,12.75,8.8T253.81,201a32.28,32.28,0,0,0,9.28-13.63l7.23,8.3a25,25,0,0,1-3.58,6.89A44,44,0,0,1,260.28,209.35Z"/><path class="cls-1" d="M294.72,170.54a30.87,30.87,0,0,0,6.74-6.49l5.45,7.8a25.65,25.65,0,0,1-3.55,4.34,36.77,36.77,0,0,1-5.26,4.43q-14.7,10.29-25.54-5.21l-18.34-26.24-6.64,4.64-3.2-4.57,4.48-8.78-3.68-12.76,6.39-4.46,7.57,10.83L273,124.38l5.48,7.83-13.87,9.7L282.83,168c1.74,2.49,3.65,3.9,5.73,4.21A8.34,8.34,0,0,0,294.72,170.54Z"/><path class="cls-1" d="M277.91,103.09a7,7,0,0,1-1-5.43,7.22,7.22,0,0,1,3.65-4.25,6.4,6.4,0,0,1,9.62,2.52,6.86,6.86,0,0,1,1,5.32,8.33,8.33,0,0,1-9,5.28A6.88,6.88,0,0,1,277.91,103.09ZM327.4,161.2l-10.9,6.37-30-51.28,10.89-6.37Z"/><path class="cls-1" d="M377.09,104.2q6,13.27,2.49,23.78t-15.62,16a28.45,28.45,0,0,1-15,2.6,24.79,24.79,0,0,1-13.39-5.83,36.79,36.79,0,0,1-9.82-13.48q-5.91-13.19-2.47-23.62t15.74-16q11.76-5.28,22-.79T377.09,104.2Zm-39.45,17.7q8.43,18.76,22.29,12.55t5.3-24.93Q356.89,91,343.07,97.15q-7.24,3.25-8.35,9.52T337.64,121.9Z"/><path class="cls-1" d="M450.76,113.57,438.55,117l-9.77-35.19q-1.84-6.61-5.41-9.14T414,71.72q-7.71,2.15-10,7.69t.67,16.25l7.92,28.52-12.16,3.38-15.9-57.24L394,67.68l3.8,7,.62-.17A17.58,17.58,0,0,1,404,66.18,25.47,25.47,0,0,1,414,61q20.59-5.73,26.42,15.24Z"/><path class="cls-1" d="M502.91,89q1.17,8.63-4.48,14.08t-17.36,7q-11.76,1.6-19.38-1l-1.47-10.81q11,3.38,20,2.16,11.55-1.56,10.6-8.54A5.59,5.59,0,0,0,489,88.36a15.26,15.26,0,0,0-4.63-2.52,73.31,73.31,0,0,0-8.63-2.51q-10.71-2.55-14.83-6a14.68,14.68,0,0,1-5-9.73A13.55,13.55,0,0,1,460.43,55q5.52-5,16-6.44a47.46,47.46,0,0,1,20.21,1.53l-2.76,10q-10.06-2.64-16.56-1.76-9.9,1.35-9.13,7a5.73,5.73,0,0,0,3.22,4.34q2.83,1.56,12,3.73a52.26,52.26,0,0,1,11.3,3.72,15.61,15.61,0,0,1,5.63,4.74A15.81,15.81,0,0,1,502.91,89Z"/><path class="cls-1" d="M515,98.76a8.25,8.25,0,0,1,1.77-6.1,7.9,7.9,0,0,1,5.81-2.35,7.75,7.75,0,0,1,6.05,1.91,8.36,8.36,0,0,1,2.31,5.84,8.56,8.56,0,0,1-1.8,6.13,9,9,0,0,1-11.83.55A8.56,8.56,0,0,1,515,98.76Z"/><circle class="cls-2" cx="542.9" cy="542.9" r="542.9"/></g></g></svg>