<?xml version="1.0" encoding="utf-8"?>
<!-- Generator: Adobe Illustrator 24.1.0, SVG Export Plug-In . SVG Version: 6.00 Build 0)  -->
<svg version="1.1" id="layer" xmlns="http://www.w3.org/2000/svg" xmlns:xlink="http://www.w3.org/1999/xlink" x="0px" y="0px"
	 viewBox="0 0 652 652" style="enable-background:new 0 0 652 652;" xml:space="preserve">
<style type="text/css">
	.st0{fill:#D8D8D8;}
	.st1{fill:#FFFFFF;}
	.st2{fill:#F2F2F2;}
</style>
<polygon class="st0" points="21.7,247.1 21.7,290.2 119.5,290.2 119.5,267.1 "/>
<polygon class="st1" points="230.7,290.2 119.5,247.1 119.5,267.2 "/>
<polygon class="st2" points="119.5,290.2 230.7,290.2 119.5,267.1 "/>
<polygon class="st1" points="486.2,344.3 230.9,290.2 486.2,375.1 "/>
<g>
	<path class="st1" d="M56.6,375.1c0.6-3.5,0.6-6.8,0.6-10.2c0-9.4-2.6-15.3-4.9-17.9c-3.3-3.8-6.3-4.1-10.1-4.1h-6.5v46.3
		c0,0-0.9,0.1,3,0.1C53.1,389.2,55.6,380.5,56.6,375.1 M63.5,342c5.8,6.4,7.7,16.8,7.7,23.1c0,23.6-8.7,32.2-28,32.2H21.7v-62.6
		h21.5C49.8,334.7,57.5,335.5,63.5,342 M105.4,374.7c-4.3,0.4-5.4,0.4-7.2,0.9c-3.4,0.8-6.4,2.7-6.4,7.3c0,0.9,0.1,1.9,0.3,2.9
		c0.9,3,3.1,3.9,5.6,3.9c1,0,3.6-0.1,5.4-1.8c2.2-2,2.3-4.8,2.3-6.8C105.4,381.1,105.4,374.7,105.4,374.7z M113,355
		c3.8,3.3,3.7,8,3.7,11.3v29.6h-11.8l-0.1-2.8c0,0-4.1,3.9-12.9,3.9c-3.6,0-7.3-1-9.6-3.7c-1.8-1.9-3-5.1-3-9.3
		c0-1.7,0-6.9,5.3-10.5c3.3-2.2,6.2-2.8,13.8-3.7l7-0.7v-3.5c0-2.1-0.1-3.9-0.9-5.3c-1.4-2.4-4.3-2.4-5.3-2.4c-3,0-4.6,1.4-5.3,2.3
		c-1.4,1.7-1.5,4.1-1.6,5.9H81.5c0-2-0.1-4.7,1.4-7.3c3.4-6.1,9.4-7.5,17.4-7.5c2.6,0,3.6,0.2,6.3,0.7
		C109.2,352.5,111,353.2,113,355 M198,374.7c-4.2,0.4-5.4,0.4-7.2,0.9c-3.4,0.8-6.4,2.7-6.4,7.3c0,0.9,0.1,1.9,0.3,2.9
		c0.9,3,3.1,3.9,5.5,3.9c1.1,0,3.7-0.1,5.4-1.8c2.2-2,2.3-4.8,2.3-6.8v-6.4H198z M205.6,355c3.8,3.3,3.7,8,3.7,11.3v29.6h-11.7
		l-0.1-2.8c0,0-4.2,3.9-12.9,3.9c-3.5,0-7.3-1-9.6-3.7c-1.7-1.9-3-5.1-3-9.3c0-1.7,0.1-6.9,5.3-10.5c3.3-2.2,6.1-2.8,13.8-3.7l7-0.7
		v-3.5c0-2.1-0.1-3.9-0.8-5.3c-1.5-2.4-4.3-2.4-5.3-2.4c-3,0-4.7,1.4-5.3,2.3c-1.4,1.7-1.5,4.1-1.6,5.9h-10.9c0-2-0.1-4.7,1.4-7.3
		c3.4-6.1,9.4-7.5,17.4-7.5c2.6,0,3.6,0.2,6.2,0.7C201.8,352.5,203.6,353.2,205.6,355 M317.6,380.5c0.2-2.4,0.4-4.7,0.4-7.2
		c0-1.9-0.1-3.8-0.3-5.7c-0.2-2.7-0.8-9.6-7.4-9.6c-1.4,0-2.5,0.3-3.8,0.9c-3.5,2.1-4.1,6.5-4.3,8.8c-0.3,2.9-0.4,5.3-0.4,7
		c0,1.9,0.1,3.9,0.3,5.9c0.1,2.7,0.8,10,7.8,10c1.1,0,2.3-0.3,3.3-0.8C316.9,387.7,317.4,382.9,317.6,380.5 M326.3,357.6
		c4.3,4.9,4.3,12.1,4.3,15.9c0,4,0,12.1-4.9,17.4c-5.5,6.1-12.8,6.1-15.7,6.1c-3.1,0-4.8-0.2-7.9-1.1c-10.7-3.1-12.7-12.1-12.7-20.6
		c0-4.5,0-13.3,6.2-18.8c5.5-4.9,12.5-5.1,15.5-5.1C313.7,351.4,321.1,351.4,326.3,357.6 M375.6,365.5c-0.1-3.2-0.1-7.1-2.8-10.2
		c-1.2-1.4-4.1-3.6-9.9-3.6c-6.9,0-9.7,3-12.8,5.8v-4.9h-12.3V396h12.3v-29.3c0.1-2.3,0.2-5.3,3.8-7c0.8-0.3,2-0.7,3.4-0.7
		c5.3,0,5.8,4.5,5.9,5.9c0.1,1.4,0.1,2.8,0.1,4.6V396h12.3V365.5z M162.9,365.5c-0.1-3.2-0.1-7.1-2.8-10.2c-1.2-1.4-4-3.6-9.9-3.6
		c-6.9,0-9.7,3-12.8,5.8v-4.9h-12.3V396h12.3v-29.3c0.1-2.3,0.2-5.3,3.8-7c0.8-0.3,2-0.7,3.3-0.7c5.4,0,5.8,4.5,5.9,5.9
		c0.2,1.4,0.2,2.8,0.2,4.6V396h12.3V365.5z M218.4,352.5h12.3v5.1c2.4-2.1,6.5-5.9,13.9-5.9c8.4,0,10.8,5.1,11.4,6.7
		c5-4.8,8.4-6.7,13.2-6.7c2.3,0,4,0.4,5.5,1c6.6,2.5,6.8,8.4,6.9,12.2v31h-12.5v-28.3c-0.1-3.1-0.2-4.8-1-6.2
		c-0.2-0.4-1.4-2.5-4.5-2.5c-1.1,0-3.1,0.3-4,0.8c-3.4,1.7-3.6,4.5-3.6,6.8v29.3h-12.2v-28.1c0-3.3,0.1-8.9-5.5-8.9
		c-1.2,0-3.4,0.4-4.5,1c-3.1,1.9-3.1,4.7-3.1,8.5v27.5h-12.3V352.5z"/>
</g>
<polygon class="st0" points="230.8,290.2 486.1,290.3 486.1,344.3 "/>
<polygon class="st2" points="486.1,290.3 486.1,344.3 621.7,375.2 621.6,290.3 "/>
</svg>
