<svg xmlns="http://www.w3.org/2000/svg" viewBox="0 0 500 75.47"><defs><style>.cls-1{fill:#640008;}.cls-2{fill:#fff;}.cls-3{fill:#e50019;}</style></defs><g id="Layer_2" data-name="Layer 2"><g id="Layer_1-2" data-name="Layer 1"><g id="Logo_CIMB_white" data-name="Logo CIMB white"><rect id="Rectangle_1485" data-name="Rectangle 1485" class="cls-1" width="75.46" height="75.47"/><path id="Path_642" data-name="Path 642" class="cls-2" d="M50.31,14.26H10.18L27.93,37.74H68.05L50.29,14.26"/><path id="Path_643" data-name="Path 643" class="cls-3" d="M68.06,37.74H27.94L10.19,61.22H50.31L68.06,37.74"/><path id="Path_644" data-name="Path 644" class="cls-1" d="M265.79,37.23a11.61,11.61,0,0,0,5.77-10.06c0-8.57-5.86-13.89-15.27-13.89H236.51V62.44h20.6c9.33,0,15.12-5.45,15.12-14.24a11.54,11.54,0,0,0-6.45-11M246.43,22.19h9.1c3.82,0,6.09,2,6.09,5.41s-2.27,5.4-6.09,5.4h-9.08Zm9.72,31.35h-9.7V42h9.71a5.8,5.8,0,0,1,.7,11.57h-.71Zm-58.26-8.85c-.36-.64-17.35-31.51-17.35-31.51h-9.71V62.34h9.93V33l17.13,29.76L215,33V62.34h9.92V13.17h-9.7S198.24,44,197.89,44.67Zm-39.21-31.4h-9.93V62.44h9.93ZM132.31,50.61a16.26,16.26,0,1,1,0-25.48l.15.11,6.91-6.91-.17-.14a26,26,0,1,0,0,39.37l.17-.15-6.91-6.91Z"/><path id="Path_645" data-name="Path 645" class="cls-1" d="M371.87,43.43h16.42l-8.07-23.77h-.14l-8.21,23.77m4.83-29.91h7.11l17.11,48.73H395l-4.66-13.11H369.86l-4.47,13.43h-6.64l18-49"/><path id="Path_646" data-name="Path 646" class="cls-1" d="M471,43.43h16.41l-8.07-23.77h-.13L471,43.43m4.81-29.91h7.12L500,62.25h-5.94l-4.64-13.11H468.94l-4.47,13.43h-6.64l17.95-49"/><path id="Path_647" data-name="Path 647" class="cls-1" d="M448.38,19.88s-18.48-14.65-35,1c0,0-7.44,6.47-7,20.07,0,0,.85,22.31,25.49,22.63a46.28,46.28,0,0,0,17.51-4.79V35.51H433.08V40h11.47v15.3s-16.88,8-26.44-1.59c0,0-7.64-4.15-6.06-18.48,0,0,3.19-17.42,20.83-16.36,0,0,9.56,1.17,12.11,5.31l3.4-4.25"/><rect id="Rectangle_1486" data-name="Rectangle 1486" class="cls-1" x="345.47" y="13.18" width="5.11" height="49.07"/><path id="Path_648" data-name="Path 648" class="cls-1" d="M327.31,13.18V53.33L298,13.18h-5.09V62.25H298V22l29.31,40.3h5.1V13.18h-5.1"/></g></g></g></svg>