<?xml version="1.0" encoding="utf-8"?>
<!-- Generator: Adobe Illustrator 24.1.0, SVG Export Plug-In . SVG Version: 6.00 Build 0)  -->
<svg version="1.1" id="layer" xmlns="http://www.w3.org/2000/svg" xmlns:xlink="http://www.w3.org/1999/xlink" x="0px" y="0px"
	 viewBox="0 0 600 150.2" style="enable-background:new 0 0 600 150.2;" xml:space="preserve">
<style type="text/css">
	.st0{fill:#D8D8D8;}
	.st1{fill:#FFFFFF;}
	.st2{fill:#F2F2F2;}
</style>
<polygon class="st0" points="0,0 0,43.1 97.8,43.1 97.8,20 "/>
<polygon class="st1" points="209,43.1 97.8,0 97.8,20.1 "/>
<polygon class="st2" points="97.8,43.1 209,43.1 97.8,20 "/>
<polygon class="st1" points="464.5,97.2 209.2,43.1 464.5,128 "/>
<g>
	<path class="st1" d="M34.9,128c0.6-3.5,0.6-6.8,0.6-10.2c0-9.4-2.6-15.3-4.9-17.9c-3.3-3.8-6.3-4.1-10.1-4.1H14v46.3
		c0,0-0.9,0.1,3,0.1C31.4,142.1,33.9,133.4,34.9,128 M41.8,94.9c5.8,6.4,7.7,16.8,7.7,23.1c0,23.6-8.7,32.2-28,32.2H0V87.6h21.5
		C28.1,87.6,35.8,88.4,41.8,94.9 M83.7,127.6c-4.3,0.4-5.4,0.4-7.2,0.9c-3.4,0.8-6.4,2.7-6.4,7.3c0,0.9,0.1,1.9,0.3,2.9
		c0.9,3,3.1,3.9,5.6,3.9c1,0,3.6-0.1,5.4-1.8c2.2-2,2.3-4.8,2.3-6.8C83.7,134,83.7,127.6,83.7,127.6z M91.3,107.9
		c3.8,3.3,3.7,8,3.7,11.3v29.6H83.2l-0.1-2.8c0,0-4.1,3.9-12.9,3.9c-3.6,0-7.3-1-9.6-3.7c-1.8-1.9-3-5.1-3-9.3c0-1.7,0-6.9,5.3-10.5
		c3.3-2.2,6.2-2.8,13.8-3.7l7-0.7v-3.5c0-2.1-0.1-3.9-0.9-5.3c-1.4-2.4-4.3-2.4-5.3-2.4c-3,0-4.6,1.4-5.3,2.3
		c-1.4,1.7-1.5,4.1-1.6,5.9H59.8c0-2-0.1-4.7,1.4-7.3c3.4-6.1,9.4-7.5,17.4-7.5c2.6,0,3.6,0.2,6.3,0.7
		C87.5,105.4,89.3,106.1,91.3,107.9 M176.3,127.6c-4.2,0.4-5.4,0.4-7.2,0.9c-3.4,0.8-6.4,2.7-6.4,7.3c0,0.9,0.1,1.9,0.3,2.9
		c0.9,3,3.1,3.9,5.5,3.9c1.1,0,3.7-0.1,5.4-1.8c2.2-2,2.3-4.8,2.3-6.8L176.3,127.6L176.3,127.6z M183.9,107.9
		c3.8,3.3,3.7,8,3.7,11.3v29.6h-11.7l-0.1-2.8c0,0-4.2,3.9-12.9,3.9c-3.5,0-7.3-1-9.6-3.7c-1.7-1.9-3-5.1-3-9.3
		c0-1.7,0.1-6.9,5.3-10.5c3.3-2.2,6.1-2.8,13.8-3.7l7-0.7v-3.5c0-2.1-0.1-3.9-0.8-5.3c-1.5-2.4-4.3-2.4-5.3-2.4
		c-3,0-4.7,1.4-5.3,2.3c-1.4,1.7-1.5,4.1-1.6,5.9h-10.9c0-2-0.1-4.7,1.4-7.3c3.4-6.1,9.4-7.5,17.4-7.5c2.6,0,3.6,0.2,6.2,0.7
		C180.1,105.4,181.9,106.1,183.9,107.9 M295.9,133.4c0.2-2.4,0.4-4.7,0.4-7.2c0-1.9-0.1-3.8-0.3-5.7c-0.2-2.7-0.8-9.6-7.4-9.6
		c-1.4,0-2.5,0.3-3.8,0.9c-3.5,2.1-4.1,6.5-4.3,8.8c-0.3,2.9-0.4,5.3-0.4,7c0,1.9,0.1,3.9,0.3,5.9c0.1,2.7,0.8,10,7.8,10
		c1.1,0,2.3-0.3,3.3-0.8C295.2,140.6,295.7,135.8,295.9,133.4 M304.6,110.5c4.3,4.9,4.3,12.1,4.3,15.9c0,4,0,12.1-4.9,17.4
		c-5.5,6.1-12.8,6.1-15.7,6.1c-3.1,0-4.8-0.2-7.9-1.1c-10.7-3.1-12.7-12.1-12.7-20.6c0-4.5,0-13.3,6.2-18.8
		c5.5-4.9,12.5-5.1,15.5-5.1C292,104.3,299.4,104.3,304.6,110.5 M353.9,118.4c-0.1-3.2-0.1-7.1-2.8-10.2c-1.2-1.4-4.1-3.6-9.9-3.6
		c-6.9,0-9.7,3-12.8,5.8v-4.9h-12.3v43.4h12.3v-29.3c0.1-2.3,0.2-5.3,3.8-7c0.8-0.3,2-0.7,3.4-0.7c5.3,0,5.8,4.5,5.9,5.9
		s0.1,2.8,0.1,4.6v26.5h12.3V118.4z M141.2,118.4c-0.1-3.2-0.1-7.1-2.8-10.2c-1.2-1.4-4-3.6-9.9-3.6c-6.9,0-9.7,3-12.8,5.8v-4.9
		h-12.3v43.4h12.3v-29.3c0.1-2.3,0.2-5.3,3.8-7c0.8-0.3,2-0.7,3.3-0.7c5.4,0,5.8,4.5,5.9,5.9c0.2,1.4,0.2,2.8,0.2,4.6v26.5h12.3
		V118.4z M196.7,105.4H209v5.1c2.4-2.1,6.5-5.9,13.9-5.9c8.4,0,10.8,5.1,11.4,6.7c5-4.8,8.4-6.7,13.2-6.7c2.3,0,4,0.4,5.5,1
		c6.6,2.5,6.8,8.4,6.9,12.2v31h-12.5v-28.3c-0.1-3.1-0.2-4.8-1-6.2c-0.2-0.4-1.4-2.5-4.5-2.5c-1.1,0-3.1,0.3-4,0.8
		c-3.4,1.7-3.6,4.5-3.6,6.8v29.3h-12.2v-28.1c0-3.3,0.1-8.9-5.5-8.9c-1.2,0-3.4,0.4-4.5,1c-3.1,1.9-3.1,4.7-3.1,8.5v27.5h-12.3
		L196.7,105.4L196.7,105.4z"/>
</g>
<polygon class="st0" points="209.1,43.1 464.4,43.2 464.4,97.2 "/>
<polygon class="st2" points="464.4,43.2 464.4,97.2 600,128.1 599.9,43.2 "/>
</svg>
