<svg id="Group_216" data-name="Group 216" xmlns="http://www.w3.org/2000/svg" width="45.287" height="45.286" viewBox="0 0 45.287 45.286">
  <path id="Path_293" data-name="Path 293" d="M255.469,39.2H241.989a3.911,3.911,0,0,0-3.889,3.889V56.569a3.911,3.911,0,0,0,3.889,3.889h13.479a3.911,3.911,0,0,0,3.889-3.889V43.089a3.911,3.911,0,0,0-3.889-3.889ZM248.7,56.835a7.033,7.033,0,1,1,7.033-7.033,7.026,7.026,0,0,1-7.033,7.033Zm7.246-12.574A1.652,1.652,0,1,1,257.6,42.61a1.66,1.66,0,0,1-1.652,1.652Zm0,0" transform="translate(-226.059 -27.159)" fill="#fff"/>
  <path id="Path_294" data-name="Path 294" d="M254.449,51.6a4.049,4.049,0,1,0,4.049,4.049,4.047,4.047,0,0,0-4.049-4.049Zm0,0" transform="translate(-231.806 -32.953)" fill="#fff"/>
  <path id="Path_295" data-name="Path 295" d="M238.143,16.6a22.643,22.643,0,1,0,22.643,22.643A22.624,22.624,0,0,0,238.143,16.6Zm13.639,29.41a6.89,6.89,0,0,1-6.873,6.873H231.43a6.89,6.89,0,0,1-6.873-6.873V32.53a6.89,6.89,0,0,1,6.873-6.873H244.91a6.89,6.89,0,0,1,6.873,6.873Zm0,0" transform="translate(-215.5 -16.6)" fill="#fff"/>
</svg>
