<svg id="Group_217" data-name="Group 217" xmlns="http://www.w3.org/2000/svg" width="45.287" height="45.287" viewBox="0 0 45.287 45.287">
  <path id="Path_296" data-name="Path 296" d="M39.143,0A22.643,22.643,0,1,0,61.787,22.643,22.624,22.624,0,0,0,39.143,0ZM50.279,19.074v.693A15.338,15.338,0,0,1,26.623,32.713a10.266,10.266,0,0,0,1.279.053,10.874,10.874,0,0,0,6.713-2.291,5.442,5.442,0,0,1-5.061-3.783,6.528,6.528,0,0,0,1.012.107A4.487,4.487,0,0,0,32,26.586a5.392,5.392,0,0,1-4.316-5.328V21.2a5.448,5.448,0,0,0,2.451.693,5.408,5.408,0,0,1-2.4-4.529,5.2,5.2,0,0,1,.746-2.717A15.388,15.388,0,0,0,39.623,20.3a4.542,4.542,0,0,1-.16-1.225A5.423,5.423,0,0,1,44.9,13.639a5.305,5.305,0,0,1,3.943,1.7A11.394,11.394,0,0,0,52.3,14.012,5.368,5.368,0,0,1,49.906,17,9.831,9.831,0,0,0,53,16.143,9.6,9.6,0,0,1,50.279,19.074Z" transform="translate(-16.5)" fill="#fff"/>
</svg>
