<svg xmlns="http://www.w3.org/2000/svg" viewBox="0 0 228.12 50.1"><defs><style>.cls-1{fill:#fff;}</style></defs><g id="Layer_2" data-name="Layer 2"><g id="Layer_1-2" data-name="Layer 1"><g id="Layer_2-2" data-name="Layer 2"><g id="Layer_1-2-2" data-name="Layer 1-2"><path class="cls-1" d="M41.87,35V16.79c0-5.31-1.71-7.26-5.19-7.26-3.85,0-5.62,2.31-5.62,6.77V35H20.93V16.36c0-4.4-1.58-6.84-5.06-6.84-4,0-5.74,2.56-5.74,7.26V35H0V1.16H9.46V4.77h.12C11.35,1.59,14.59,0,18.92,0s7.63,2.21,9.76,6A12.3,12.3,0,0,1,39.42,0C47,0,52,4.64,52,14.1V35Z"/><path class="cls-1" d="M80.92,35V31.37H80.8c-1.47,3-5.49,4.82-10,4.82-10,0-17-7.87-17-18.13,0-10,7.26-18.06,17-18.06,4.15,0,8,1.65,10,4.76h.12V1.15H91.05V35Zm0-17a8.59,8.59,0,0,0-8.59-8.6h0A8.44,8.44,0,0,0,64,18.19a8.45,8.45,0,1,0,16.9-.13Z"/><path class="cls-1" d="M155.25,35V16.24c0-4.58-1.58-6.72-5.31-6.72-4.09,0-5.79,2.26-5.79,6.84V35H134V1.16h9.46V4.77h.13C145.73,1.28,148.72,0,152.81,0c6.1,0,12.57,3.42,12.57,13.43V35Z"/><path class="cls-1" d="M189.49,35V31.42h-.12c-1.47,3.11-4.15,4.7-8.73,4.7-7.14,0-13.06-4.27-13.06-13.92v-21h10.13v19c0,4.45,1.59,6.53,5.43,6.53s5.8-2.57,5.8-6.71V1.16h10.13V35Z"/><path class="cls-1" d="M217.13,10.68c-.06-1.95-1.46-2.56-3.11-2.56s-2.93,1-2.93,2.25c0,1.84,1.65,2.75,6.35,4,8.05,2.14,10.68,5.37,10.68,10.32,0,7.08-6.1,11.53-13.79,11.53S201.27,31.86,200.53,25H210.6a3.5,3.5,0,0,0,3.85,3.12c1.77,0,3.54-1,3.54-2.63,0-1.89-1.16-2.87-6.22-4.45-8.54-2.63-10.8-6-10.8-9.95,0-6.71,6.29-11,13.12-11,7.33,0,12.51,4,13,10.68Z"/><polygon class="cls-1" points="105.52 38.2 93.8 38.2 93.8 38.2 105.52 38.2 105.52 38.2"/><path class="cls-1" d="M129.87,31.43V1.16H119.74V4.33h-.13c-1.64-2.62-5-4.27-9.4-4.27-9.76,0-17,7.87-17,18.24,0,10.19,7.14,17.82,17,17.82,4.15,0,7.94-1.83,9.46-5.06v1a11.38,11.38,0,0,1-1.53,6.17h11.12A33,33,0,0,0,129.87,31.43Zm-18.43-4.77c-4.89,0-8.12-4-8.12-8.73a8.26,8.26,0,0,1,8.12-8.41c4.94,0,8.3,3.78,8.3,8.72A8,8,0,0,1,111.44,26.66Z"/><path class="cls-1" d="M118.14,38.2a7.47,7.47,0,0,1-6.7,3.36c-2.51,0-4.76-.86-5.92-3.36H93.8c.85,6.47,7.08,11.9,16.66,11.9,8.48,0,15.13-3.61,17.57-8.3a13.52,13.52,0,0,0,1.23-3.61Z"/></g></g></g></g></svg>